<svg width="2328" height="1435" xmlns="http://www.w3.org/2000/svg" xmlns:xlink="http://www.w3.org/1999/xlink" xml:space="preserve" overflow="hidden"><g transform="translate(-797 -288)"><g><path d="M803.5 298.5 803.5 1715.35" stroke="#000000" stroke-width="6.875" stroke-linecap="butt" stroke-linejoin="miter" stroke-miterlimit="8" stroke-dasharray="6.875 6.875" stroke-opacity="1" fill="none" fill-rule="evenodd"/><path d="M1382.5 298.5 1382.5 1715.35" stroke="#000000" stroke-width="6.875" stroke-linecap="butt" stroke-linejoin="miter" stroke-miterlimit="8" stroke-dasharray="6.875 6.875" stroke-opacity="1" fill="none" fill-rule="evenodd"/><path d="M1961.5 298.5 1961.5 1715.35" stroke="#000000" stroke-width="6.875" stroke-linecap="butt" stroke-linejoin="miter" stroke-miterlimit="8" stroke-dasharray="6.875 6.875" stroke-opacity="1" fill="none" fill-rule="evenodd"/><path d="M2540.5 298.5 2540.5 1715.35" stroke="#000000" stroke-width="6.875" stroke-linecap="butt" stroke-linejoin="miter" stroke-miterlimit="8" stroke-dasharray="6.875 6.875" stroke-opacity="1" fill="none" fill-rule="evenodd"/><path d="M3118.5 298.5 3118.5 1715.35" stroke="#000000" stroke-width="6.875" stroke-linecap="butt" stroke-linejoin="miter" stroke-miterlimit="8" stroke-dasharray="6.875 6.875" stroke-opacity="1" fill="none" fill-rule="evenodd"/><text fill="#000000" fill-opacity="1" font-family="Aptos,Aptos_MSFontService,sans-serif" font-style="normal" font-variant="normal" font-weight="400" font-stretch="normal" font-size="83" text-anchor="start" direction="ltr" writing-mode="lr-tb" unicode-bidi="normal" text-decoration="none" transform="matrix(1 0 0 1 967.892 390)">Level 0</text><text fill="#000000" fill-opacity="1" font-family="Aptos,Aptos_MSFontService,sans-serif" font-style="normal" font-variant="normal" font-weight="400" font-stretch="normal" font-size="83" text-anchor="start" direction="ltr" writing-mode="lr-tb" unicode-bidi="normal" text-decoration="none" transform="matrix(1 0 0 1 1546.59 390)">Level 1</text><text fill="#000000" fill-opacity="1" font-family="Aptos,Aptos_MSFontService,sans-serif" font-style="normal" font-variant="normal" font-weight="400" font-stretch="normal" font-size="83" text-anchor="start" direction="ltr" writing-mode="lr-tb" unicode-bidi="normal" text-decoration="none" transform="matrix(1 0 0 1 2125.28 390)">Level 2</text><text fill="#000000" fill-opacity="1" font-family="Aptos,Aptos_MSFontService,sans-serif" font-style="normal" font-variant="normal" font-weight="400" font-stretch="normal" font-size="83" text-anchor="start" direction="ltr" writing-mode="lr-tb" unicode-bidi="normal" text-decoration="none" transform="matrix(1 0 0 1 2703.98 390)">Level 3</text><path d="M2144.5 760C2144.5 696.211 2196.21 644.5 2260 644.5 2323.79 644.5 2375.5 696.211 2375.5 760 2375.5 823.789 2323.79 875.5 2260 875.5 2196.21 875.5 2144.5 823.789 2144.5 760Z" stroke="#042433" stroke-width="6.875" stroke-linecap="butt" stroke-linejoin="miter" stroke-miterlimit="8" stroke-opacity="1" fill="none" fill-rule="evenodd"/><text fill="#000000" fill-opacity="1" font-family="Aptos,Aptos_MSFontService,sans-serif" font-style="normal" font-variant="normal" font-weight="400" font-stretch="normal" font-size="83" text-anchor="start" direction="ltr" writing-mode="lr-tb" unicode-bidi="normal" text-decoration="none" transform="matrix(1 0 0 1 2218.56 786)">v7</text><path d="M981.5 758C981.5 694.211 1033.21 642.5 1097 642.5 1160.79 642.5 1212.5 694.211 1212.5 758 1212.5 821.789 1160.79 873.5 1097 873.5 1033.21 873.5 981.5 821.789 981.5 758Z" stroke="#042433" stroke-width="6.875" stroke-linecap="butt" stroke-linejoin="miter" stroke-miterlimit="8" stroke-opacity="1" fill="#AEAEAE" fill-rule="evenodd" fill-opacity="1"/><text fill="#000000" fill-opacity="1" font-family="Aptos,Aptos_MSFontService,sans-serif" font-style="normal" font-variant="normal" font-weight="400" font-stretch="normal" font-size="83" text-anchor="start" direction="ltr" writing-mode="lr-tb" unicode-bidi="normal" text-decoration="none" transform="matrix(1 0 0 1 1055.76 784)">v1</text><path d="M974.5 1075C974.5 1011.21 1026.21 959.5 1090 959.5 1153.79 959.5 1205.5 1011.21 1205.5 1075 1205.5 1138.79 1153.79 1190.5 1090 1190.5 1026.21 1190.5 974.5 1138.79 974.5 1075Z" stroke="#042433" stroke-width="6.875" stroke-linecap="butt" stroke-linejoin="miter" stroke-miterlimit="8" stroke-opacity="1" fill="#AEAEAE" fill-rule="evenodd" fill-opacity="1"/><text fill="#000000" fill-opacity="1" font-family="Aptos,Aptos_MSFontService,sans-serif" font-style="normal" font-variant="normal" font-weight="400" font-stretch="normal" font-size="83" text-anchor="start" direction="ltr" writing-mode="lr-tb" unicode-bidi="normal" text-decoration="none" transform="matrix(1 0 0 1 1048.54 1101)">v2</text><path d="M981.5 1392C981.5 1328.21 1033.21 1276.5 1097 1276.5 1160.79 1276.5 1212.5 1328.21 1212.5 1392 1212.5 1455.79 1160.79 1507.5 1097 1507.5 1033.21 1507.5 981.5 1455.79 981.5 1392Z" stroke="#042433" stroke-width="6.875" stroke-linecap="butt" stroke-linejoin="miter" stroke-miterlimit="8" stroke-opacity="1" fill="#AEAEAE" fill-rule="evenodd" fill-opacity="1"/><text fill="#000000" fill-opacity="1" font-family="Aptos,Aptos_MSFontService,sans-serif" font-style="normal" font-variant="normal" font-weight="400" font-stretch="normal" font-size="83" text-anchor="start" direction="ltr" writing-mode="lr-tb" unicode-bidi="normal" text-decoration="none" transform="matrix(1 0 0 1 1055.76 1418)">v3</text><path d="M1560.5 1096C1560.5 1032.21 1612.21 980.5 1676 980.5 1739.79 980.5 1791.5 1032.21 1791.5 1096 1791.5 1159.79 1739.79 1211.5 1676 1211.5 1612.21 1211.5 1560.5 1159.79 1560.5 1096Z" stroke="#042433" stroke-width="6.875" stroke-linecap="butt" stroke-linejoin="miter" stroke-miterlimit="8" stroke-opacity="1" fill="#AEAEAE" fill-rule="evenodd" fill-opacity="1"/><text fill="#000000" fill-opacity="1" font-family="Aptos,Aptos_MSFontService,sans-serif" font-style="normal" font-variant="normal" font-weight="400" font-stretch="normal" font-size="83" text-anchor="start" direction="ltr" writing-mode="lr-tb" unicode-bidi="normal" text-decoration="none" transform="matrix(1 0 0 1 1634.46 1122)">v4</text><path d="M2144.5 1459C2144.5 1395.21 2196.21 1343.5 2260 1343.5 2323.79 1343.5 2375.5 1395.21 2375.5 1459 2375.5 1522.79 2323.79 1574.5 2260 1574.5 2196.21 1574.5 2144.5 1522.79 2144.5 1459Z" stroke="#042433" stroke-width="6.875" stroke-linecap="butt" stroke-linejoin="miter" stroke-miterlimit="8" stroke-opacity="1" fill="none" fill-rule="evenodd"/><text fill="#000000" fill-opacity="1" font-family="Aptos,Aptos_MSFontService,sans-serif" font-style="normal" font-variant="normal" font-weight="400" font-stretch="normal" font-size="83" text-anchor="start" direction="ltr" writing-mode="lr-tb" unicode-bidi="normal" text-decoration="none" transform="matrix(1 0 0 1 2218.56 1485)">v5</text><path d="M2719.5 1459C2719.5 1395.21 2771.21 1343.5 2835 1343.5 2898.79 1343.5 2950.5 1395.21 2950.5 1459 2950.5 1522.79 2898.79 1574.5 2835 1574.5 2771.21 1574.5 2719.5 1522.79 2719.5 1459Z" stroke="#042433" stroke-width="6.875" stroke-linecap="butt" stroke-linejoin="miter" stroke-miterlimit="8" stroke-opacity="1" fill="none" fill-rule="evenodd"/><text fill="#000000" fill-opacity="1" font-family="Aptos,Aptos_MSFontService,sans-serif" font-style="normal" font-variant="normal" font-weight="400" font-stretch="normal" font-size="83" text-anchor="start" direction="ltr" writing-mode="lr-tb" unicode-bidi="normal" text-decoration="none" transform="matrix(1 0 0 1 2793.64 1485)">v9</text><path d="M2133.5 1096C2133.5 1032.21 2185.21 980.5 2249 980.5 2312.79 980.5 2364.5 1032.21 2364.5 1096 2364.5 1159.79 2312.79 1211.5 2249 1211.5 2185.21 1211.5 2133.5 1159.79 2133.5 1096Z" stroke="#042433" stroke-width="6.875" stroke-linecap="butt" stroke-linejoin="miter" stroke-miterlimit="8" stroke-opacity="1" fill="#AEAEAE" fill-rule="evenodd" fill-opacity="1"/><text fill="#000000" fill-opacity="1" font-family="Aptos,Aptos_MSFontService,sans-serif" font-style="normal" font-variant="normal" font-weight="400" font-stretch="normal" font-size="83" text-anchor="start" direction="ltr" writing-mode="lr-tb" unicode-bidi="normal" text-decoration="none" transform="matrix(1 0 0 1 2207.83 1122)">v6</text><path d="M2719.5 1096C2719.5 1032.21 2771.21 980.5 2835 980.5 2898.79 980.5 2950.5 1032.21 2950.5 1096 2950.5 1159.79 2898.79 1211.5 2835 1211.5 2771.21 1211.5 2719.5 1159.79 2719.5 1096Z" stroke="#042433" stroke-width="6.875" stroke-linecap="butt" stroke-linejoin="miter" stroke-miterlimit="8" stroke-opacity="1" fill="#AEAEAE" fill-rule="evenodd" fill-opacity="1"/><text fill="#000000" fill-opacity="1" font-family="Aptos,Aptos_MSFontService,sans-serif" font-style="normal" font-variant="normal" font-weight="400" font-stretch="normal" font-size="83" text-anchor="start" direction="ltr" writing-mode="lr-tb" unicode-bidi="normal" text-decoration="none" transform="matrix(1 0 0 1 2793.64 1122)">v8</text><path d="M1212.51 755.063 2121.52 757.356 2121.51 764.231 1212.49 761.938ZM2116.97 747.032 2144.43 760.852 2116.9 774.532Z" fill="#000000" fill-rule="nonzero" fill-opacity="1"/><path d="M2377.9 758.04 2705.72 1078.05 2700.91 1082.97 2373.1 762.96ZM2709.64 1067.47 2719.71 1096.52 2690.43 1087.15Z" fill="#000000" fill-rule="nonzero" fill-opacity="1"/><path d="M1214.9 756.036 1546.3 1078.43 1541.5 1083.35 1210.1 760.964ZM1550.2 1067.84 1560.33 1096.87 1531.03 1087.55Z" fill="#000000" fill-rule="nonzero" fill-opacity="1"/><path d="M1791.5 1093.06 2111.08 1093.06 2111.08 1099.94 1791.5 1099.94ZM2106.5 1082.75 2134 1096.5 2106.5 1110.25Z" fill="#000000" fill-rule="nonzero" fill-opacity="1"/><path d="M3.49506e-06-3.4375 332.032-3.43716 332.032 3.43784-3.49506e-06 3.4375ZM327.449-13.7497 354.948 0.000360892 327.448 13.7503Z" fill="#000000" fill-rule="nonzero" fill-opacity="1" transform="matrix(1 0 0 -1 2364.5 1096.5)"/><path d="M1205.71 1071.07 1537.89 1091.25 1537.47 1098.12 1205.29 1077.93ZM1533.94 1080.68 1560.55 1096.07 1532.27 1108.13Z" fill="#000000" fill-rule="nonzero" fill-opacity="1"/><path d="M1212.75 1388.07 2121.82 1453.92 2121.32 1460.77 1212.25 1394.93ZM2118 1443.3 2144.43 1459 2116.01 1470.73Z" fill="#000000" fill-rule="nonzero" fill-opacity="1"/><path d="M2.49345-2.36624 330.933 343.73 325.946 348.463-2.49345 2.36624ZM335.258 333.307 344.214 362.719 315.31 352.237Z" fill="#000000" fill-rule="nonzero" fill-opacity="1" transform="matrix(1 0 0 -1 2375.5 1459.22)"/><path d="M2375.5 1456.06 2696.8 1456.06 2696.8 1462.94 2375.5 1462.94ZM2692.21 1445.75 2719.71 1459.5 2692.21 1473.25Z" fill="#000000" fill-rule="nonzero" fill-opacity="1"/><path d="M2.22439-2.62078 332.58 277.769 328.131 283.01-2.22439 2.62078ZM335.759 266.941 347.828 295.219 317.964 287.907Z" fill="#000000" fill-rule="nonzero" fill-opacity="1" transform="matrix(1 0 0 -1 1212.5 1391.72)"/></g></g></svg>