<svg width="422" height="360" xmlns="http://www.w3.org/2000/svg" xmlns:xlink="http://www.w3.org/1999/xlink" xml:space="preserve" overflow="hidden"><g transform="translate(-2898 -1358)"><g><g><g><g><g><g><path d="M339.156 280.345 755.884 280.345 755.884 637.541 339.156 637.541Z" fill="#FFFFFF" fill-rule="nonzero" fill-opacity="1" transform="matrix(1.00244 0 0 1 2560.83 1079.74)"/><path d="M547.369 339.733C611.083 339.733 662.732 391.382 662.732 455.097 662.732 518.807 611.083 570.46 547.369 570.46 483.658 570.46 432.005 518.807 432.005 455.097 432.005 422.649 445.672 391.7 469.651 369.842L547.369 455.097Z" stroke="#FFFFFF" stroke-width="2.48053" stroke-linecap="butt" stroke-linejoin="round" stroke-miterlimit="10" stroke-opacity="1" fill="#0F9ED5" fill-rule="evenodd" fill-opacity="1" transform="matrix(1.00244 0 0 1 2560.83 1079.74)"/><path d="M469.651 369.842C490.899 350.471 518.616 339.733 547.369 339.733L547.369 455.097Z" stroke="#FFFFFF" stroke-width="2.48053" stroke-linecap="butt" stroke-linejoin="round" stroke-miterlimit="10" stroke-opacity="1" fill="#E97132" fill-rule="evenodd" fill-opacity="1" transform="matrix(1.00244 0 0 1 2560.83 1079.74)"/><text fill="#000000" fill-opacity="1" font-family="Times New Roman,Times New Roman_MSFontService,sans-serif" font-style="normal" font-variant="normal" font-weight="400" font-stretch="normal" font-size="92" text-anchor="start" direction="ltr" writing-mode="lr-tb" unicode-bidi="normal" text-decoration="none" transform="matrix(0.361684 0 0 0.360804 3113.84 1600)">15</text><text fill="#000000" fill-opacity="1" font-family="Times New Roman,Times New Roman_MSFontService,sans-serif" font-style="normal" font-variant="normal" font-weight="400" font-stretch="normal" font-size="92" text-anchor="start" direction="ltr" writing-mode="lr-tb" unicode-bidi="normal" text-decoration="none" transform="matrix(0.361684 0 0 0.360804 3080.36 1492)">2</text><text fill="#000000" fill-opacity="1" font-family="Times New Roman,Times New Roman_MSFontService,sans-serif" font-style="normal" font-variant="normal" font-weight="400" font-stretch="normal" font-size="66" text-anchor="start" direction="ltr" writing-mode="lr-tb" unicode-bidi="normal" text-decoration="none" transform="matrix(0.361684 0 0 0.360804 2974.96 1394)">Rocket</text><text fill="#000000" fill-opacity="1" font-family="Times New Roman,Times New Roman_MSFontService,sans-serif" font-style="normal" font-variant="normal" font-weight="400" font-stretch="normal" font-size="66" text-anchor="start" direction="ltr" writing-mode="lr-tb" unicode-bidi="normal" text-decoration="none" transform="matrix(0.361684 0 0 0.360804 3042.57 1394)">-</text><text fill="#000000" fill-opacity="1" font-family="Times New Roman,Times New Roman_MSFontService,sans-serif" font-style="normal" font-variant="normal" font-weight="400" font-stretch="normal" font-size="66" text-anchor="start" direction="ltr" writing-mode="lr-tb" unicode-bidi="normal" text-decoration="none" transform="matrix(0.361684 0 0 0.360804 3050.52 1394)">60K gates (minutes)</text><path d="M422.682 601.641 436.032 601.641 436.032 614.63 422.682 614.63Z" stroke="#FFFFFF" stroke-width="2.48053" stroke-linecap="butt" stroke-linejoin="round" stroke-miterlimit="10" stroke-opacity="1" fill="#0F9ED5" fill-rule="nonzero" fill-opacity="1" transform="matrix(1.00244 0 0 1 2560.83 1079.74)"/><text fill="#000000" fill-opacity="1" font-family="Times New Roman,Times New Roman_MSFontService,sans-serif" font-style="normal" font-variant="normal" font-weight="400" font-stretch="normal" font-size="73" text-anchor="start" direction="ltr" writing-mode="lr-tb" unicode-bidi="normal" text-decoration="none" transform="matrix(0.361684 0 0 0.360804 3003.87 1695)">Yosys</text><path d="M532.006 601.641 544.995 601.641 544.995 614.63 532.006 614.63Z" stroke="#FFFFFF" stroke-width="2.48053" stroke-linecap="butt" stroke-linejoin="round" stroke-miterlimit="10" stroke-opacity="1" fill="#E97132" fill-rule="nonzero" fill-opacity="1" transform="matrix(1.00244 0 0 1 2560.83 1079.74)"/><text fill="#000000" fill-opacity="1" font-family="Times New Roman,Times New Roman_MSFontService,sans-serif" font-style="normal" font-variant="normal" font-weight="400" font-stretch="normal" font-size="73" text-anchor="start" direction="ltr" writing-mode="lr-tb" unicode-bidi="normal" text-decoration="none" transform="matrix(0.361684 0 0 0.360804 3113.21 1695)">Emul. Stack</text><path d="M339.336 280.525 756.065 280.525 756.065 637.721 339.336 637.721Z" stroke="#D9D9D9" stroke-width="1.24026" stroke-linecap="butt" stroke-linejoin="round" stroke-miterlimit="10" stroke-opacity="1" fill="none" fill-rule="nonzero" transform="matrix(1.00244 0 0 1 2560.83 1079.74)"/></g></g></g></g></g></g></g></svg>