<svg width="421" height="363" xmlns="http://www.w3.org/2000/svg" xmlns:xlink="http://www.w3.org/1999/xlink" xml:space="preserve" overflow="hidden"><g transform="translate(-3352 -1357)"><g><g><g><g><g><g><path d="M770 281.082 1186.75 281.082 1186.75 638.299 770 638.299Z" fill="#FFFFFF" fill-rule="nonzero" fill-opacity="1" transform="matrix(1 0 0 1.00149 2584.08 1078.31)"/><path d="M978.21 339.852C1042.13 339.852 1093.94 391.668 1093.94 455.585 1093.94 519.505 1042.13 571.319 978.21 571.319 914.294 571.319 862.476 519.505 862.476 455.585 862.476 424.889 874.672 395.453 896.375 373.749L978.21 455.585Z" stroke="#FFFFFF" stroke-width="2.48067" stroke-linecap="butt" stroke-linejoin="round" stroke-miterlimit="10" stroke-opacity="1" fill="#0F9ED5" fill-rule="evenodd" fill-opacity="1" transform="matrix(1 0 0 1.00149 2584.08 1078.31)"/><path d="M896.375 373.749C918.079 352.045 947.515 339.852 978.21 339.852L978.21 455.585Z" stroke="#FFFFFF" stroke-width="2.48067" stroke-linecap="butt" stroke-linejoin="round" stroke-miterlimit="10" stroke-opacity="1" fill="#E97132" fill-rule="evenodd" fill-opacity="1" transform="matrix(1 0 0 1.00149 2584.08 1078.31)"/><text fill="#000000" fill-opacity="1" font-family="Times New Roman,Times New Roman_MSFontService,sans-serif" font-style="normal" font-variant="normal" font-weight="400" font-stretch="normal" font-size="92" text-anchor="start" direction="ltr" writing-mode="lr-tb" unicode-bidi="normal" text-decoration="none" transform="matrix(0.360825 0 0 0.361361 3567.9 1599)">35</text><text fill="#000000" fill-opacity="1" font-family="Times New Roman,Times New Roman_MSFontService,sans-serif" font-style="normal" font-variant="normal" font-weight="400" font-stretch="normal" font-size="92" text-anchor="start" direction="ltr" writing-mode="lr-tb" unicode-bidi="normal" text-decoration="none" transform="matrix(0.360825 0 0 0.361361 3531.88 1492)">5</text><text fill="#000000" fill-opacity="1" font-family="Times New Roman,Times New Roman_MSFontService,sans-serif" font-style="normal" font-variant="normal" font-weight="400" font-stretch="normal" font-size="64" text-anchor="start" direction="ltr" writing-mode="lr-tb" unicode-bidi="normal" text-decoration="none" transform="matrix(0.360825 0 0 0.361361 3424.03 1393)">BOOM</text><text fill="#000000" fill-opacity="1" font-family="Times New Roman,Times New Roman_MSFontService,sans-serif" font-style="normal" font-variant="normal" font-weight="400" font-stretch="normal" font-size="64" text-anchor="start" direction="ltr" writing-mode="lr-tb" unicode-bidi="normal" text-decoration="none" transform="matrix(0.360825 0 0 0.361361 3493.51 1393)">-</text><text fill="#000000" fill-opacity="1" font-family="Times New Roman,Times New Roman_MSFontService,sans-serif" font-style="normal" font-variant="normal" font-weight="400" font-stretch="normal" font-size="64" text-anchor="start" direction="ltr" writing-mode="lr-tb" unicode-bidi="normal" text-decoration="none" transform="matrix(0.360825 0 0 0.361361 3501.22 1393)">100K gates (minutes)</text><path d="M853.531 602.397 866.882 602.397 866.882 615.386 853.531 615.386Z" stroke="#FFFFFF" stroke-width="2.48067" stroke-linecap="butt" stroke-linejoin="round" stroke-miterlimit="10" stroke-opacity="1" fill="#0F9ED5" fill-rule="nonzero" fill-opacity="1" transform="matrix(1 0 0 1.00149 2584.08 1078.31)"/><text fill="#000000" fill-opacity="1" font-family="Times New Roman,Times New Roman_MSFontService,sans-serif" font-style="normal" font-variant="normal" font-weight="400" font-stretch="normal" font-size="73" text-anchor="start" direction="ltr" writing-mode="lr-tb" unicode-bidi="normal" text-decoration="none" transform="matrix(0.360825 0 0 0.361361 3456.89 1696)">Yosys</text><path d="M962.861 602.397 975.85 602.397 975.85 615.386 962.861 615.386Z" stroke="#FFFFFF" stroke-width="2.48067" stroke-linecap="butt" stroke-linejoin="round" stroke-miterlimit="10" stroke-opacity="1" fill="#E97132" fill-rule="nonzero" fill-opacity="1" transform="matrix(1 0 0 1.00149 2584.08 1078.31)"/><text fill="#000000" fill-opacity="1" font-family="Times New Roman,Times New Roman_MSFontService,sans-serif" font-style="normal" font-variant="normal" font-weight="400" font-stretch="normal" font-size="73" text-anchor="start" direction="ltr" writing-mode="lr-tb" unicode-bidi="normal" text-decoration="none" transform="matrix(0.360825 0 0 0.361361 3565.96 1696)">Emul. Stack</text><path d="M770.18 281.263 1186.93 281.263 1186.93 638.479 770.18 638.479Z" stroke="#D9D9D9" stroke-width="1.24033" stroke-linecap="butt" stroke-linejoin="round" stroke-miterlimit="10" stroke-opacity="1" fill="none" fill-rule="nonzero" transform="matrix(1 0 0 1.00149 2584.08 1078.31)"/></g></g></g></g></g></g></g></svg>