<svg width="3044" height="1875" xmlns="http://www.w3.org/2000/svg" xmlns:xlink="http://www.w3.org/1999/xlink" xml:space="preserve" overflow="hidden"><g transform="translate(-531 -357)"><g><rect x="538" y="806" width="1399" height="271" stroke="#000000" stroke-width="10.3125" stroke-linecap="butt" stroke-linejoin="miter" stroke-miterlimit="8" stroke-opacity="1" fill="none"/><text fill="#000000" fill-opacity="1" font-family="Times New Roman,Times New Roman_MSFontService,sans-serif" font-style="normal" font-variant="normal" font-weight="400" font-stretch="normal" font-size="147" text-anchor="start" direction="ltr" writing-mode="lr-tb" unicode-bidi="normal" text-decoration="none" transform="matrix(1 0 0 1 1061.22 995)">Yosys</text><rect x="538" y="1518" width="1399" height="271" stroke="#000000" stroke-width="10.3125" stroke-linecap="butt" stroke-linejoin="miter" stroke-miterlimit="8" stroke-opacity="1" fill="none"/><text fill="#000000" fill-opacity="1" font-family="Times New Roman,Times New Roman_MSFontService,sans-serif" font-style="normal" font-variant="normal" font-weight="400" font-stretch="normal" font-size="147" text-anchor="start" direction="ltr" writing-mode="lr-tb" unicode-bidi="normal" text-decoration="none" transform="matrix(1 0 0 1 1054.17 1707)">Parser</text><rect x="538" y="1874" width="1399" height="271" stroke="#000000" stroke-width="10.3125" stroke-linecap="butt" stroke-linejoin="miter" stroke-miterlimit="8" stroke-opacity="1" fill="none"/><text fill="#000000" fill-opacity="1" font-family="Times New Roman,Times New Roman_MSFontService,sans-serif" font-style="normal" font-variant="normal" font-weight="400" font-stretch="normal" font-size="147" text-anchor="start" direction="ltr" writing-mode="lr-tb" unicode-bidi="normal" text-decoration="none" transform="matrix(1 0 0 1 822.135 2063)">Set rank order</text><rect x="2169" y="450" width="1398" height="271" stroke="#000000" stroke-width="10.3125" stroke-linecap="butt" stroke-linejoin="miter" stroke-miterlimit="8" stroke-opacity="1" fill="none"/><text fill="#000000" fill-opacity="1" font-family="Times New Roman,Times New Roman_MSFontService,sans-serif" font-style="normal" font-variant="normal" font-weight="400" font-stretch="normal" font-size="147" text-anchor="start" direction="ltr" writing-mode="lr-tb" unicode-bidi="normal" text-decoration="none" transform="matrix(1 0 0 1 2558.48 639)">Partitioner</text><rect x="2169" y="806" width="1398" height="271" stroke="#000000" stroke-width="10.3125" stroke-linecap="butt" stroke-linejoin="miter" stroke-miterlimit="8" stroke-opacity="1" fill="none"/><text fill="#000000" fill-opacity="1" font-family="Times New Roman,Times New Roman_MSFontService,sans-serif" font-style="normal" font-variant="normal" font-weight="400" font-stretch="normal" font-size="147" text-anchor="start" direction="ltr" writing-mode="lr-tb" unicode-bidi="normal" text-decoration="none" transform="matrix(1 0 0 1 2250.54 995)">Distribute IO/SRAM</text><rect x="2169" y="1162" width="1398" height="271" stroke="#000000" stroke-width="10.3125" stroke-linecap="butt" stroke-linejoin="miter" stroke-miterlimit="8" stroke-opacity="1" fill="none"/><text fill="#000000" fill-opacity="1" font-family="Times New Roman,Times New Roman_MSFontService,sans-serif" font-style="normal" font-variant="normal" font-weight="400" font-stretch="normal" font-size="147" text-anchor="start" direction="ltr" writing-mode="lr-tb" unicode-bidi="normal" text-decoration="none" transform="matrix(1 0 0 1 2598.87 1351)">Schedule</text><rect x="2169" y="1518" width="1398" height="271" stroke="#000000" stroke-width="10.3125" stroke-linecap="butt" stroke-linejoin="miter" stroke-miterlimit="8" stroke-opacity="1" fill="none"/><text fill="#000000" fill-opacity="1" font-family="Times New Roman,Times New Roman_MSFontService,sans-serif" font-style="normal" font-variant="normal" font-weight="400" font-stretch="normal" font-size="147" text-anchor="start" direction="ltr" writing-mode="lr-tb" unicode-bidi="normal" text-decoration="none" transform="matrix(1 0 0 1 2275.17 1707)">Instruction mapping</text><path d="M952.168 450 1567 450 1567 675.832C1567 700.778 1546.78 721 1521.83 721L907 721 907 495.168C907 470.222 927.223 450 952.168 450Z" stroke="#000000" stroke-width="10.3125" stroke-linecap="butt" stroke-linejoin="miter" stroke-miterlimit="8" stroke-opacity="1" fill="none" fill-rule="evenodd"/><text fill="#000000" fill-opacity="1" font-family="Times New Roman,Times New Roman_MSFontService,sans-serif" font-style="normal" font-variant="normal" font-weight="400" font-stretch="normal" font-size="147" text-anchor="start" direction="ltr" writing-mode="lr-tb" unicode-bidi="normal" text-decoration="none" transform="matrix(1 0 0 1 1021.61 639)">Verilog</text><path d="M952.168 1162 1567 1162 1567 1387.83C1567 1412.78 1546.78 1433 1521.83 1433L907 1433 907 1207.17C907 1182.22 927.223 1162 952.168 1162Z" stroke="#000000" stroke-width="10.3125" stroke-linecap="butt" stroke-linejoin="miter" stroke-miterlimit="8" stroke-opacity="1" fill="none" fill-rule="evenodd"/><text fill="#000000" fill-opacity="1" font-family="Times New Roman,Times New Roman_MSFontService,sans-serif" font-style="normal" font-variant="normal" font-weight="400" font-stretch="normal" font-size="147" text-anchor="start" direction="ltr" writing-mode="lr-tb" unicode-bidi="normal" text-decoration="none" transform="matrix(1 0 0 1 1078.8 1351)">BLIF</text><path d="M2583.17 1874 3198 1874 3198 2099.83C3198 2124.78 3177.78 2145 3152.83 2145L2538 2145 2538 1919.17C2538 1894.22 2558.22 1874 2583.17 1874Z" stroke="#000000" stroke-width="10.3125" stroke-linecap="butt" stroke-linejoin="miter" stroke-miterlimit="8" stroke-opacity="1" fill="none" fill-rule="evenodd"/><text fill="#000000" fill-opacity="1" font-family="Times New Roman,Times New Roman_MSFontService,sans-serif" font-style="normal" font-variant="normal" font-weight="400" font-stretch="normal" font-size="147" text-anchor="start" direction="ltr" writing-mode="lr-tb" unicode-bidi="normal" text-decoration="none" transform="matrix(1 0 0 1 2641.84 2063)">Inst file</text><path d="M1242.16 721 1242.16 780.118 1231.84 780.118 1231.84 721ZM1252.47 774.961 1237 805.899 1221.53 774.962Z" fill="#000000" fill-rule="nonzero" fill-opacity="1"/><path d="M5.15625-2.19184e-05 5.1565 59.1179-5.156 59.118-5.15625 2.19184e-05ZM15.469 53.9616 0.000360892 84.8992-15.4685 53.9618Z" fill="#000000" fill-rule="nonzero" fill-opacity="1" transform="matrix(-1 0 0 1 1237 1077)"/><path d="M1242.16 1433 1242.16 1492.12 1231.84 1492.12 1231.84 1433ZM1252.47 1486.96 1237 1517.9 1221.53 1486.96Z" fill="#000000" fill-rule="nonzero" fill-opacity="1"/><path d="M1242.16 1789 1242.16 1848.12 1231.84 1848.12 1231.84 1789ZM1252.47 1842.96 1237 1873.9 1221.53 1842.96Z" fill="#000000" fill-rule="nonzero" fill-opacity="1"/><path d="M5.15625-2.19184e-05 5.1565 59.1179-5.156 59.118-5.15625 2.19184e-05ZM15.469 53.9616 0.000360892 84.8992-15.4685 53.9618Z" fill="#000000" fill-rule="nonzero" fill-opacity="1" transform="matrix(-1 0 0 1 2868 721)"/><path d="M2873.16 1077 2873.16 1136.12 2862.84 1136.12 2862.84 1077ZM2883.47 1130.96 2868 1161.9 2852.53 1130.96Z" fill="#000000" fill-rule="nonzero" fill-opacity="1"/><path d="M2873.16 1433 2873.16 1492.12 2862.84 1492.12 2862.84 1433ZM2883.47 1486.96 2868 1517.9 2852.53 1486.96Z" fill="#000000" fill-rule="nonzero" fill-opacity="1"/><path d="M2873.16 1789 2873.16 1848.12 2862.84 1848.12 2862.84 1789ZM2883.47 1842.96 2868 1873.9 2852.53 1842.96Z" fill="#000000" fill-rule="nonzero" fill-opacity="1"/><path d="M1237 2144.43 1237 2226.93 2073.79 2226.93 2073.79 763" stroke="#000000" stroke-width="10.3125" stroke-linecap="butt" stroke-linejoin="miter" stroke-miterlimit="8" stroke-opacity="1" fill="none" fill-rule="evenodd"/><path d="M5.15625 0 5.15625 396.021 0 390.865 793.572 390.865 788.416 396.021 788.416 339.303 798.728 339.303 798.728 401.177-5.15625 401.177-5.15625 0ZM778.103 344.459 793.572 313.521 809.041 344.459Z" fill="#000000" fill-rule="nonzero" fill-opacity="1" transform="matrix(1 0 0 -1 2074 763.521)"/></g></g></svg>