<svg width="1696" height="1444" xmlns="http://www.w3.org/2000/svg" xmlns:xlink="http://www.w3.org/1999/xlink" xml:space="preserve" overflow="hidden"><g transform="translate(-1214 -627)"><g><rect x="1255.5" y="1026.5" width="273" height="635" stroke="#000000" stroke-width="6.875" stroke-linecap="butt" stroke-linejoin="miter" stroke-miterlimit="8" stroke-opacity="1" fill="none"/><text fill="#000000" fill-opacity="1" font-family="Times New Roman,Times New Roman_MSFontService,sans-serif" font-style="normal" font-variant="normal" font-weight="400" font-stretch="normal" font-size="83" text-anchor="start" direction="ltr" writing-mode="lr-tb" unicode-bidi="normal" text-decoration="none" transform="matrix(6.12323e-17 -1 1 6.12323e-17 1422.24 1535)">Processor 0</text><rect x="1594.5" y="1026.5" width="272" height="635" stroke="#000000" stroke-width="6.875" stroke-linecap="butt" stroke-linejoin="miter" stroke-miterlimit="8" stroke-opacity="1" fill="none"/><text fill="#000000" fill-opacity="1" font-family="Times New Roman,Times New Roman_MSFontService,sans-serif" font-style="normal" font-variant="normal" font-weight="400" font-stretch="normal" font-size="83" text-anchor="start" direction="ltr" writing-mode="lr-tb" unicode-bidi="normal" text-decoration="none" transform="matrix(6.12323e-17 -1 1 6.12323e-17 1760.61 1535)">Processor 1</text><rect x="1932.5" y="1026.5" width="273" height="635" stroke="#000000" stroke-width="6.875" stroke-linecap="butt" stroke-linejoin="miter" stroke-miterlimit="8" stroke-opacity="1" fill="none"/><text fill="#000000" fill-opacity="1" font-family="Times New Roman,Times New Roman_MSFontService,sans-serif" font-style="normal" font-variant="normal" font-weight="400" font-stretch="normal" font-size="83" text-anchor="start" direction="ltr" writing-mode="lr-tb" unicode-bidi="normal" text-decoration="none" transform="matrix(6.12323e-17 -1 1 6.12323e-17 2098.98 1535)">Processor 2</text><rect x="2609.5" y="1026.5" width="273" height="635" stroke="#000000" stroke-width="6.875" stroke-linecap="butt" stroke-linejoin="miter" stroke-miterlimit="8" stroke-opacity="1" fill="none"/><text fill="#000000" fill-opacity="1" font-family="Times New Roman,Times New Roman_MSFontService,sans-serif" font-style="normal" font-variant="normal" font-weight="400" font-stretch="normal" font-size="83" text-anchor="start" direction="ltr" writing-mode="lr-tb" unicode-bidi="normal" text-decoration="none" transform="matrix(6.12323e-17 -1 1 6.12323e-17 2775.72 1569)">Processor n</text><text fill="#000000" fill-opacity="1" font-family="Times New Roman,Times New Roman_MSFontService,sans-serif" font-style="normal" font-variant="normal" font-weight="400" font-stretch="normal" font-size="83" text-anchor="start" direction="ltr" writing-mode="lr-tb" unicode-bidi="normal" text-decoration="none" transform="matrix(6.12323e-17 -1 1 6.12323e-17 2775.72 1186)">-</text><text fill="#000000" fill-opacity="1" font-family="Times New Roman,Times New Roman_MSFontService,sans-serif" font-style="normal" font-variant="normal" font-weight="400" font-stretch="normal" font-size="83" text-anchor="start" direction="ltr" writing-mode="lr-tb" unicode-bidi="normal" text-decoration="none" transform="matrix(6.12323e-17 -1 1 6.12323e-17 2775.72 1159)">1</text><text fill="#000000" fill-opacity="1" font-family="Times New Roman,Times New Roman_MSFontService,sans-serif" font-style="normal" font-variant="normal" font-weight="400" font-stretch="normal" font-size="83" text-anchor="start" direction="ltr" writing-mode="lr-tb" unicode-bidi="normal" text-decoration="none" transform="matrix(1 0 0 1 2364.87 1373)">…</text><rect x="1252.5" y="1779.5" width="1626" height="273" stroke="#000000" stroke-width="6.875" stroke-linecap="butt" stroke-linejoin="miter" stroke-miterlimit="8" stroke-opacity="1" fill="none"/><text fill="#000000" fill-opacity="1" font-family="Times New Roman,Times New Roman_MSFontService,sans-serif" font-style="normal" font-variant="normal" font-weight="400" font-stretch="normal" font-size="128" text-anchor="start" direction="ltr" writing-mode="lr-tb" unicode-bidi="normal" text-decoration="none" transform="matrix(1 0 0 1 1296.9 1962)">Local Switch Network (</text><text fill="#000000" fill-opacity="1" font-family="Times New Roman,Times New Roman_MSFontService,sans-serif" font-style="normal" font-variant="normal" font-weight="400" font-stretch="normal" font-size="128" text-anchor="start" direction="ltr" writing-mode="lr-tb" unicode-bidi="normal" text-decoration="none" transform="matrix(1 0 0 1 2533.25 1962)">Xbar</text><text fill="#000000" fill-opacity="1" font-family="Times New Roman,Times New Roman_MSFontService,sans-serif" font-style="normal" font-variant="normal" font-weight="400" font-stretch="normal" font-size="128" text-anchor="start" direction="ltr" writing-mode="lr-tb" unicode-bidi="normal" text-decoration="none" transform="matrix(1 0 0 1 2789.92 1962)">)</text><path d="M1395.94 1684.42 1395.94 1756.95 1389.06 1756.95 1389.06 1684.42ZM1378.75 1689 1392.5 1661.5 1406.25 1689ZM1406.25 1752.37 1392.5 1779.87 1378.75 1752.37Z" fill="#000000" fill-rule="nonzero" fill-opacity="1"/><path d="M1734.94 1684.42 1734.94 1756.95 1728.06 1756.95 1728.06 1684.42ZM1717.75 1689 1731.5 1661.5 1745.25 1689ZM1745.25 1752.37 1731.5 1779.87 1717.75 1752.37Z" fill="#000000" fill-rule="nonzero" fill-opacity="1"/><path d="M2074.94 1684.42 2074.94 1756.95 2068.06 1756.95 2068.06 1684.42ZM2057.75 1689 2071.5 1661.5 2085.25 1689ZM2085.25 1752.37 2071.5 1779.87 2057.75 1752.37Z" fill="#000000" fill-rule="nonzero" fill-opacity="1"/><path d="M2753.94 1684.42 2753.94 1756.95 2747.06 1756.95 2747.06 1684.42ZM2736.75 1689 2750.5 1661.5 2764.25 1689ZM2764.25 1752.37 2750.5 1779.87 2736.75 1752.37Z" fill="#000000" fill-rule="nonzero" fill-opacity="1"/><rect x="1252.5" y="635.5" width="1626" height="272" stroke="#000000" stroke-width="6.875" stroke-linecap="butt" stroke-linejoin="miter" stroke-miterlimit="8" stroke-opacity="1" fill="none"/><text fill="#000000" fill-opacity="1" font-family="Times New Roman,Times New Roman_MSFontService,sans-serif" font-style="normal" font-variant="normal" font-weight="400" font-stretch="normal" font-size="128" text-anchor="start" direction="ltr" writing-mode="lr-tb" unicode-bidi="normal" text-decoration="none" transform="matrix(1 0 0 1 1617.44 818)">SRAM Processor</text><path d="M3.43757 22.9166 3.43779 95.4531-3.43721 95.4532-3.43743 22.9166ZM-13.7499 27.5 0 0 13.7501 27.5ZM13.7503 90.8698 0.000360892 118.37-13.7497 90.8699Z" fill="#000000" fill-rule="nonzero" fill-opacity="1" transform="matrix(1 0 0 -1 1392.5 1025.87)"/><path d="M3.43757 22.9166 3.43779 95.4531-3.43721 95.4532-3.43743 22.9166ZM-13.7499 27.5 0 0 13.7501 27.5ZM13.7503 90.8698 0.000360892 118.37-13.7497 90.8699Z" fill="#000000" fill-rule="nonzero" fill-opacity="1" transform="matrix(1 0 0 -1 1730.5 1025.87)"/><path d="M3.43757 22.9166 3.43779 95.4531-3.43721 95.4532-3.43743 22.9166ZM-13.7499 27.5 0 0 13.7501 27.5ZM13.7503 90.8698 0.000360892 118.37-13.7497 90.8699Z" fill="#000000" fill-rule="nonzero" fill-opacity="1" transform="matrix(1 0 0 -1 2068.5 1025.87)"/><path d="M3.43757 22.9166 3.43779 95.4531-3.43721 95.4532-3.43743 22.9166ZM-13.7499 27.5 0 0 13.7501 27.5ZM13.7503 90.8698 0.000360892 118.37-13.7497 90.8699Z" fill="#000000" fill-rule="nonzero" fill-opacity="1" transform="matrix(1 0 0 -1 2745.5 1025.87)"/></g></g></svg>