<svg width="3167" height="1301" xmlns="http://www.w3.org/2000/svg" xmlns:xlink="http://www.w3.org/1999/xlink" xml:space="preserve" overflow="hidden"><g transform="translate(-609 -371)"><g><rect x="631.5" y="552.5" width="747" height="726" stroke="#042433" stroke-width="6.875" stroke-linecap="butt" stroke-linejoin="miter" stroke-miterlimit="8" stroke-opacity="1" fill="none"/><text fill="#000000" fill-opacity="1" font-family="Times New Roman,Times New Roman_MSFontService,sans-serif" font-style="normal" font-variant="normal" font-weight="400" font-stretch="normal" font-size="83" text-anchor="start" direction="ltr" writing-mode="lr-tb" unicode-bidi="normal" text-decoration="none" transform="matrix(1 0 0 1 845.546 649)">Module 0</text><rect x="696.5" y="722.5" width="176" height="506" stroke="#042433" stroke-width="6.875" stroke-linecap="butt" stroke-linejoin="miter" stroke-miterlimit="8" stroke-opacity="1" fill="none"/><text fill="#000000" fill-opacity="1" font-family="Times New Roman,Times New Roman_MSFontService,sans-serif" font-style="normal" font-variant="normal" font-weight="400" font-stretch="normal" font-size="83" text-anchor="start" direction="ltr" writing-mode="lr-tb" unicode-bidi="normal" text-decoration="none" transform="matrix(6.12323e-17 -1 1 6.12323e-17 814.123 1109)">Proc (0)</text><rect x="1154.5" y="722.5" width="175" height="506" stroke="#042433" stroke-width="6.875" stroke-linecap="butt" stroke-linejoin="miter" stroke-miterlimit="8" stroke-opacity="1" fill="none"/><text fill="#000000" fill-opacity="1" font-family="Times New Roman,Times New Roman_MSFontService,sans-serif" font-style="normal" font-variant="normal" font-weight="400" font-stretch="normal" font-size="83" text-anchor="start" direction="ltr" writing-mode="lr-tb" unicode-bidi="normal" text-decoration="none" transform="matrix(6.12323e-17 -1 1 6.12323e-17 1272.06 1143)">Proc (n</text><text fill="#000000" fill-opacity="1" font-family="Times New Roman,Times New Roman_MSFontService,sans-serif" font-style="normal" font-variant="normal" font-weight="400" font-stretch="normal" font-size="83" text-anchor="start" direction="ltr" writing-mode="lr-tb" unicode-bidi="normal" text-decoration="none" transform="matrix(6.12323e-17 -1 1 6.12323e-17 1272.06 903)">-</text><text fill="#000000" fill-opacity="1" font-family="Times New Roman,Times New Roman_MSFontService,sans-serif" font-style="normal" font-variant="normal" font-weight="400" font-stretch="normal" font-size="83" text-anchor="start" direction="ltr" writing-mode="lr-tb" unicode-bidi="normal" text-decoration="none" transform="matrix(6.12323e-17 -1 1 6.12323e-17 1272.06 875)">1)</text><text fill="#000000" fill-opacity="1" font-family="Times New Roman,Times New Roman_MSFontService,sans-serif" font-style="normal" font-variant="normal" font-weight="400" font-stretch="normal" font-size="83" text-anchor="start" direction="ltr" writing-mode="lr-tb" unicode-bidi="normal" text-decoration="none" transform="matrix(1 0 0 1 971.457 979)">…</text><rect x="1429.5" y="552.5" width="747" height="726" stroke="#042433" stroke-width="6.875" stroke-linecap="butt" stroke-linejoin="miter" stroke-miterlimit="8" stroke-opacity="1" fill="none"/><text fill="#000000" fill-opacity="1" font-family="Times New Roman,Times New Roman_MSFontService,sans-serif" font-style="normal" font-variant="normal" font-weight="400" font-stretch="normal" font-size="83" text-anchor="start" direction="ltr" writing-mode="lr-tb" unicode-bidi="normal" text-decoration="none" transform="matrix(1 0 0 1 1643.05 649)">Module 1</text><rect x="1493.5" y="722.5" width="176" height="506" stroke="#042433" stroke-width="6.875" stroke-linecap="butt" stroke-linejoin="miter" stroke-miterlimit="8" stroke-opacity="1" fill="none"/><text fill="#000000" fill-opacity="1" font-family="Times New Roman,Times New Roman_MSFontService,sans-serif" font-style="normal" font-variant="normal" font-weight="400" font-stretch="normal" font-size="83" text-anchor="start" direction="ltr" writing-mode="lr-tb" unicode-bidi="normal" text-decoration="none" transform="matrix(6.12323e-17 -1 1 6.12323e-17 1611.62 1109)">Proc (0)</text><rect x="1951.5" y="722.5" width="176" height="506" stroke="#042433" stroke-width="6.875" stroke-linecap="butt" stroke-linejoin="miter" stroke-miterlimit="8" stroke-opacity="1" fill="none"/><text fill="#000000" fill-opacity="1" font-family="Times New Roman,Times New Roman_MSFontService,sans-serif" font-style="normal" font-variant="normal" font-weight="400" font-stretch="normal" font-size="83" text-anchor="start" direction="ltr" writing-mode="lr-tb" unicode-bidi="normal" text-decoration="none" transform="matrix(6.12323e-17 -1 1 6.12323e-17 2069.56 1143)">Proc (n</text><text fill="#000000" fill-opacity="1" font-family="Times New Roman,Times New Roman_MSFontService,sans-serif" font-style="normal" font-variant="normal" font-weight="400" font-stretch="normal" font-size="83" text-anchor="start" direction="ltr" writing-mode="lr-tb" unicode-bidi="normal" text-decoration="none" transform="matrix(6.12323e-17 -1 1 6.12323e-17 2069.56 903)">-</text><text fill="#000000" fill-opacity="1" font-family="Times New Roman,Times New Roman_MSFontService,sans-serif" font-style="normal" font-variant="normal" font-weight="400" font-stretch="normal" font-size="83" text-anchor="start" direction="ltr" writing-mode="lr-tb" unicode-bidi="normal" text-decoration="none" transform="matrix(6.12323e-17 -1 1 6.12323e-17 2069.56 875)">1)</text><text fill="#000000" fill-opacity="1" font-family="Times New Roman,Times New Roman_MSFontService,sans-serif" font-style="normal" font-variant="normal" font-weight="400" font-stretch="normal" font-size="83" text-anchor="start" direction="ltr" writing-mode="lr-tb" unicode-bidi="normal" text-decoration="none" transform="matrix(1 0 0 1 1768.96 979)">…</text><rect x="3024.5" y="552.5" width="747" height="726" stroke="#042433" stroke-width="6.875" stroke-linecap="butt" stroke-linejoin="miter" stroke-miterlimit="8" stroke-opacity="1" fill="none"/><text fill="#000000" fill-opacity="1" font-family="Times New Roman,Times New Roman_MSFontService,sans-serif" font-style="normal" font-variant="normal" font-weight="400" font-stretch="normal" font-size="83" text-anchor="start" direction="ltr" writing-mode="lr-tb" unicode-bidi="normal" text-decoration="none" transform="matrix(1 0 0 1 3192.21 649)">Module m</text><text fill="#000000" fill-opacity="1" font-family="Times New Roman,Times New Roman_MSFontService,sans-serif" font-style="normal" font-variant="normal" font-weight="400" font-stretch="normal" font-size="83" text-anchor="start" direction="ltr" writing-mode="lr-tb" unicode-bidi="normal" text-decoration="none" transform="matrix(1 0 0 1 3533.67 649)">-</text><text fill="#000000" fill-opacity="1" font-family="Times New Roman,Times New Roman_MSFontService,sans-serif" font-style="normal" font-variant="normal" font-weight="400" font-stretch="normal" font-size="83" text-anchor="start" direction="ltr" writing-mode="lr-tb" unicode-bidi="normal" text-decoration="none" transform="matrix(1 0 0 1 3561.17 649)">1</text><rect x="3088.5" y="722.5" width="176" height="506" stroke="#042433" stroke-width="6.875" stroke-linecap="butt" stroke-linejoin="miter" stroke-miterlimit="8" stroke-opacity="1" fill="none"/><text fill="#000000" fill-opacity="1" font-family="Times New Roman,Times New Roman_MSFontService,sans-serif" font-style="normal" font-variant="normal" font-weight="400" font-stretch="normal" font-size="83" text-anchor="start" direction="ltr" writing-mode="lr-tb" unicode-bidi="normal" text-decoration="none" transform="matrix(6.12323e-17 -1 1 6.12323e-17 3206.62 1109)">Proc (0)</text><rect x="3546.5" y="722.5" width="176" height="506" stroke="#042433" stroke-width="6.875" stroke-linecap="butt" stroke-linejoin="miter" stroke-miterlimit="8" stroke-opacity="1" fill="none"/><text fill="#000000" fill-opacity="1" font-family="Times New Roman,Times New Roman_MSFontService,sans-serif" font-style="normal" font-variant="normal" font-weight="400" font-stretch="normal" font-size="83" text-anchor="start" direction="ltr" writing-mode="lr-tb" unicode-bidi="normal" text-decoration="none" transform="matrix(6.12323e-17 -1 1 6.12323e-17 3664.56 1143)">Proc (n</text><text fill="#000000" fill-opacity="1" font-family="Times New Roman,Times New Roman_MSFontService,sans-serif" font-style="normal" font-variant="normal" font-weight="400" font-stretch="normal" font-size="83" text-anchor="start" direction="ltr" writing-mode="lr-tb" unicode-bidi="normal" text-decoration="none" transform="matrix(6.12323e-17 -1 1 6.12323e-17 3664.56 903)">-</text><text fill="#000000" fill-opacity="1" font-family="Times New Roman,Times New Roman_MSFontService,sans-serif" font-style="normal" font-variant="normal" font-weight="400" font-stretch="normal" font-size="83" text-anchor="start" direction="ltr" writing-mode="lr-tb" unicode-bidi="normal" text-decoration="none" transform="matrix(6.12323e-17 -1 1 6.12323e-17 3664.56 875)">1)</text><text fill="#000000" fill-opacity="1" font-family="Times New Roman,Times New Roman_MSFontService,sans-serif" font-style="normal" font-variant="normal" font-weight="400" font-stretch="normal" font-size="83" text-anchor="start" direction="ltr" writing-mode="lr-tb" unicode-bidi="normal" text-decoration="none" transform="matrix(1 0 0 1 3363.96 979)">…</text><rect x="640.5" y="1448.5" width="3131" height="220" stroke="#042433" stroke-width="6.875" stroke-linecap="butt" stroke-linejoin="miter" stroke-miterlimit="8" stroke-opacity="1" fill="none"/><text fill="#000000" fill-opacity="1" font-family="Times New Roman,Times New Roman_MSFontService,sans-serif" font-style="normal" font-variant="normal" font-weight="400" font-stretch="normal" font-size="83" text-anchor="start" direction="ltr" writing-mode="lr-tb" unicode-bidi="normal" text-decoration="none" transform="matrix(1 0 0 1 1947.56 1588)">Global network</text><path d="M788.248 1251.37 790.615 1425.54 783.74 1425.63 781.374 1251.46ZM771.125 1256.18 784.5 1228.5 798.622 1255.81ZM800.864 1420.82 787.489 1448.5 773.367 1421.19Z" fill="#000000" fill-rule="nonzero" fill-opacity="1"/><path d="M1244.25 1251.37 1246.61 1425.54 1239.74 1425.63 1237.37 1251.46ZM1227.12 1256.18 1240.5 1228.5 1254.62 1255.81ZM1256.86 1420.82 1243.49 1448.5 1229.37 1421.19Z" fill="#000000" fill-rule="nonzero" fill-opacity="1"/><path d="M1577.25 1252.37 1579.61 1426.54 1572.74 1426.63 1570.37 1252.46ZM1560.12 1257.18 1573.5 1229.5 1587.62 1256.81ZM1589.86 1421.82 1576.49 1449.5 1562.37 1422.19Z" fill="#000000" fill-rule="nonzero" fill-opacity="1"/><path d="M2033.25 1252.37 2035.61 1426.54 2028.74 1426.63 2026.37 1252.46ZM2016.12 1257.18 2029.5 1229.5 2043.62 1256.81ZM2045.86 1421.82 2032.49 1449.5 2018.37 1422.19Z" fill="#000000" fill-rule="nonzero" fill-opacity="1"/><path d="M3183.25 1251.37 3185.61 1425.54 3178.74 1425.63 3176.37 1251.46ZM3166.12 1256.18 3179.5 1228.5 3193.62 1255.81ZM3195.86 1420.82 3182.49 1448.5 3168.37 1421.19Z" fill="#000000" fill-rule="nonzero" fill-opacity="1"/><path d="M3640.25 1251.37 3642.61 1425.54 3635.74 1425.63 3633.37 1251.46ZM3623.12 1256.18 3636.5 1228.5 3650.62 1255.81ZM3652.86 1420.82 3639.49 1448.5 3625.37 1421.19Z" fill="#000000" fill-rule="nonzero" fill-opacity="1"/><path d="M793.938 470.417 793.938 693.605 787.063 693.605 787.063 470.417ZM776.75 475 790.5 447.5 804.25 475ZM804.25 689.022 790.5 716.522 776.75 689.022Z" fill="#000000" fill-rule="nonzero" fill-opacity="1"/><path d="M1249.94 470.417 1249.94 693.604 1243.06 693.604 1243.06 470.417ZM1232.75 475 1246.5 447.5 1260.25 475ZM1260.25 689.021 1246.5 716.521 1232.75 689.021Z" fill="#000000" fill-rule="nonzero" fill-opacity="1"/><path d="M1579.94 476.416 1579.94 699.605 1573.06 699.605 1573.06 476.416ZM1562.75 481 1576.5 453.5 1590.25 481ZM1590.25 695.022 1576.5 722.522 1562.75 695.022Z" fill="#000000" fill-rule="nonzero" fill-opacity="1"/><path d="M2035.94 476.417 2035.94 699.604 2029.06 699.604 2029.06 476.417ZM2018.75 481 2032.5 453.5 2046.25 481ZM2046.25 695.021 2032.5 722.521 2018.75 695.021Z" fill="#000000" fill-rule="nonzero" fill-opacity="1"/><path d="M3183.94 470.417 3183.94 693.605 3177.06 693.605 3177.06 470.417ZM3166.75 475 3180.5 447.5 3194.25 475ZM3194.25 689.022 3180.5 716.522 3166.75 689.022Z" fill="#000000" fill-rule="nonzero" fill-opacity="1"/><path d="M3640.94 470.417 3640.94 693.604 3634.06 693.604 3634.06 470.417ZM3623.75 475 3637.5 447.5 3651.25 475ZM3651.25 689.021 3637.5 716.521 3623.75 689.021Z" fill="#000000" fill-rule="nonzero" fill-opacity="1"/><text fill="#000000" fill-opacity="1" font-family="Times New Roman,Times New Roman_MSFontService,sans-serif" font-style="normal" font-variant="normal" font-weight="400" font-stretch="normal" font-size="83" text-anchor="start" direction="ltr" writing-mode="lr-tb" unicode-bidi="normal" text-decoration="none" transform="matrix(1 0 0 1 662.042 479)">IO</text></g></g></svg>