<?xml version="1.0" standalone="no"?>
<!DOCTYPE svg PUBLIC "-//W3C//DTD SVG 20010904//EN"
 "http://www.w3.org/TR/2001/REC-SVG-20010904/DTD/svg10.dtd">
<svg version="1.0" xmlns="http://www.w3.org/2000/svg"
 width="1184.000000pt" height="2038.000000pt" viewBox="0 0 1184.000000 2038.000000"
 preserveAspectRatio="xMidYMid meet">

<g transform="translate(0.000000,2038.000000) scale(0.100000,-0.100000)"
fill="#000000" stroke="none">
<path d="M3560 19516 c0 -382 -3 -697 -7 -699 -5 -3 -290 -8 -635 -12 l-628
-7 0 46 0 46 -102 -52 c-57 -29 -106 -54 -110 -56 -5 -2 -8 300 -8 672 l0 676
-1030 0 -1030 0 0 -10060 0 -10060 1030 0 1030 0 2 604 3 604 103 -48 102 -49
0 44 0 43 233 6 c127 3 411 8 630 11 l397 5 0 -610 0 -610 3330 0 3330 0 2
607 3 608 338 3 337 2 0 -45 c0 -25 3 -45 8 -44 4 0 59 26 122 58 l115 59
-123 61 -122 61 0 -45 0 -45 -340 0 -340 0 0 2045 0 2045 340 0 340 0 0 -45 0
-45 120 60 c66 33 120 62 120 65 0 3 -54 32 -119 65 l-120 60 -3 -48 -3 -47
-335 0 -335 0 -3 707 -2 708 -3330 0 -3330 0 0 -704 0 -704 -142 -6 c-79 -3
-362 -8 -630 -11 l-488 -6 0 46 c0 25 -2 45 -5 45 -2 0 -48 -23 -100 -51 -53
-28 -98 -49 -101 -47 -2 3 -3 2069 -2 4592 l3 4587 103 -51 c57 -27 105 -50
108 -50 2 0 4 20 4 43 l0 44 398 6 c218 4 504 7 635 7 l237 0 0 -620 0 -620
3330 0 3330 0 0 600 0 600 338 -2 337 -3 3 -42 c2 -24 6 -43 10 -42 4 0 59 26
122 58 l115 59 -123 61 -122 61 0 -45 0 -45 -340 0 -340 0 0 2040 0 2040 340
0 340 0 0 -45 0 -45 120 60 c66 33 120 62 120 65 0 3 -54 32 -120 65 l-120 60
0 -45 0 -45 -340 0 -340 0 0 720 0 720 -3330 0 -3330 0 0 -694z m6600 -56 l0
-690 -605 0 -605 0 0 45 0 45 -125 -62 -125 -63 122 -61 123 -62 3 44 3 44
605 0 604 0 0 -2040 0 -2040 -605 0 -605 0 0 45 c0 25 -2 45 -5 45 -10 0 -235
-115 -235 -120 0 -5 225 -120 235 -120 3 0 5 20 5 45 l0 45 605 0 605 0 0
-570 0 -570 -3270 0 -3270 0 0 595 0 595 85 0 85 0 0 -45 c0 -25 2 -45 5 -45
3 0 50 23 105 50 55 28 102 50 105 50 3 0 5 -185 5 -410 l0 -410 2333 2 2332
3 0 825 0 825 -2330 0 -2330 0 -5 -397 -5 -396 -104 49 c-57 27 -105 49 -107
49 -2 0 -4 -20 -4 -45 l0 -45 -85 0 -85 0 0 2040 0 2040 85 0 85 0 0 -40 c0
-22 5 -40 10 -40 6 0 55 23 110 50 l100 50 0 -405 0 -405 2335 0 2335 0 0 830
0 830 -2335 0 -2335 0 0 -405 c0 -223 -2 -405 -4 -405 -2 0 -50 22 -107 49
l-104 49 -3 -44 -3 -44 -69 0 c-37 0 -75 -3 -84 -6 -15 -6 -16 57 -16 665 l0
671 3270 0 3270 0 0 -690z m-8150 -9390 l0 -10000 -970 0 -970 0 0 10000 0
10000 970 0 970 0 0 -10000z m6600 8720 l0 -770 -2270 0 -2270 0 0 770 0 770
2270 0 2270 0 0 -770z m-5050 -2079 l0 -2039 -192 -6 c-106 -3 -392 -8 -635
-11 l-443 -6 0 46 c0 25 -3 45 -6 45 -3 0 -53 -25 -110 -56 l-104 -56 0 2056
c0 1389 3 2056 10 2056 6 0 55 -23 110 -50 l100 -50 0 45 c0 25 1 46 3 47 3 2
697 13 1030 16 l237 2 0 -2039z m5050 -2086 l0 -765 -2267 2 -2268 3 -3 763
-2 762 2270 0 2270 0 0 -765z m1530 -8505 l0 -680 -602 2 -603 3 -3 47 -3 48
-120 -60 c-65 -33 -119 -62 -119 -65 0 -3 54 -32 120 -65 l120 -60 0 45 0 45
605 0 605 0 0 -2045 0 -2045 -605 0 -605 0 0 45 0 45 -122 -61 -123 -61 115
-59 c63 -32 118 -58 123 -58 4 -1 7 19 7 44 l0 45 605 0 605 0 0 -580 0 -580
-3270 0 -3270 0 0 580 0 580 90 0 90 0 0 -45 c0 -25 2 -45 5 -45 3 0 53 25
110 56 l105 56 2 -399 3 -398 2325 0 2325 0 0 830 0 830 -2325 0 -2325 0 -3
-413 -2 -413 -23 7 c-12 4 -61 26 -109 50 l-88 44 0 -50 0 -50 -90 0 -90 0 2
2048 3 2047 88 3 87 3 0 -46 c0 -25 4 -45 9 -45 4 0 51 22 102 50 52 27 97 50
102 50 4 0 7 -175 7 -390 l0 -390 2330 0 2330 0 0 830 0 830 -2330 0 -2330 0
-2 -419 -3 -419 -104 49 c-57 27 -105 49 -107 49 -2 0 -4 -20 -4 -45 l0 -45
-90 0 -90 0 0 675 0 675 3270 0 3270 0 0 -680z m-1540 -670 l0 -770 -2270 0
-2270 0 0 770 0 770 2270 0 2270 0 0 -770z m-5060 -2114 l0 -2043 -407 -7
c-225 -3 -507 -7 -628 -8 l-220 -1 -3 45 -3 44 -104 -53 -105 -54 0 2056 c0
1390 3 2055 10 2055 6 0 51 -20 100 -45 49 -25 92 -45 95 -45 3 0 5 20 5 45
l0 45 283 3 c155 1 438 3 630 5 l347 2 0 -2044z m5060 -2051 l0 -765 -2270 0
-2270 0 0 765 0 765 2270 0 2270 0 0 -765z"/>
<path d="M9310 18129 c0 -87 11 -111 23 -49 l7 30 176 0 c98 0 175 -2 172 -5
-2 -3 -87 -43 -189 -90 -101 -46 -184 -90 -184 -97 0 -7 85 -51 188 -99 103
-47 191 -89 194 -93 11 -11 -327 -7 -348 4 -11 6 -19 21 -19 35 0 14 -4 25
-10 25 -6 0 -10 -44 -10 -111 0 -104 10 -135 23 -71 8 38 29 42 221 42 201 0
225 -5 233 -42 11 -57 23 -37 23 39 l0 78 -189 85 c-104 47 -186 88 -183 91 4
3 89 43 190 89 l182 84 0 73 c0 42 -4 73 -10 73 -5 0 -10 -9 -10 -19 0 -44
-32 -51 -227 -51 -201 0 -233 6 -233 45 0 14 -4 25 -10 25 -6 0 -10 -37 -10
-91z"/>
<path d="M9390 17518 c-67 -34 -93 -79 -88 -151 5 -69 27 -102 89 -134 58 -29
122 -30 179 0 57 29 82 64 88 125 6 71 -25 124 -92 157 -62 31 -118 32 -176 3z
m202 -75 c58 -29 45 -100 -25 -136 -51 -26 -163 -29 -200 -4 -52 34 -45 102
14 133 65 33 154 36 211 7z"/>
<path d="M9385 17156 c-53 -23 -85 -71 -85 -125 0 -26 7 -56 15 -67 19 -25 19
-34 0 -34 -8 0 -15 -6 -15 -14 0 -26 40 -107 49 -101 6 3 8 12 5 20 -11 29 34
35 260 35 124 0 226 3 226 7 0 17 -44 113 -52 113 -4 0 -8 -11 -8 -24 0 -26
-28 -36 -102 -36 -34 0 -39 3 -33 18 25 57 18 105 -22 153 -52 62 -164 87
-238 55z m205 -84 c32 -24 48 -67 34 -90 -21 -34 -75 -52 -160 -52 -84 0 -101
8 -117 53 -9 23 17 73 45 88 62 33 154 34 198 1z"/>
<path d="M6302 16988 c-34 -34 6 -90 48 -68 25 13 28 65 4 74 -24 9 -39 7 -52
-6z"/>
<path d="M9628 16793 l-13 -28 -132 -5 c-122 -5 -133 -7 -157 -29 -35 -33 -35
-84 -1 -134 l26 -37 -26 0 c-18 0 -25 -5 -25 -19 0 -28 40 -112 50 -106 5 3 6
13 3 21 -10 28 18 34 160 34 l137 0 0 60 c0 63 -8 75 -25 38 -9 -22 -17 -23
-122 -26 -110 -3 -111 -2 -132 24 -25 32 -27 67 -5 88 12 13 41 16 150 16
l134 0 0 65 c0 36 -2 65 -4 65 -3 0 -11 -12 -18 -27z"/>
<path d="M6300 16736 c-28 -35 11 -93 48 -70 35 22 22 84 -18 84 -10 0 -23 -7
-30 -14z"/>
<path d="M6300 16486 c-28 -35 11 -93 48 -70 35 22 22 84 -18 84 -10 0 -23 -7
-30 -14z"/>
<path d="M9310 16335 c0 -86 7 -104 25 -62 10 22 12 22 258 25 136 1 247 6
247 11 0 17 -43 111 -51 111 -4 0 -9 -10 -11 -22 -3 -23 -3 -23 -221 -26
l-217 -2 -10 25 c-5 14 -12 25 -15 25 -3 0 -5 -38 -5 -85z"/>
<path d="M9405 16200 c-89 -30 -133 -134 -88 -210 17 -29 79 -70 107 -70 24 0
19 15 -10 28 -30 14 -58 74 -48 105 10 35 55 76 93 87 63 17 61 20 61 -105 l0
-115 26 0 c68 0 120 69 111 148 -9 82 -68 131 -165 138 -31 2 -70 -1 -87 -6z
m216 -101 c15 -29 4 -65 -26 -85 -42 -27 -55 -13 -55 59 0 35 3 66 6 70 10 10
62 -21 75 -44z"/>
<path d="M9467 15680 c-140 -36 -204 -132 -144 -220 31 -46 64 -68 127 -85
128 -34 257 -10 327 60 36 36 43 49 43 82 0 93 -94 160 -235 168 -44 2 -97 0
-118 -5z m220 -83 c35 -8 72 -22 83 -32 43 -39 6 -97 -76 -115 -49 -12 -204
-12 -263 -1 -128 25 -129 125 -1 150 68 13 187 12 257 -2z"/>
<path d="M926 12376 c-54 -20 -107 -65 -136 -117 -22 -39 -25 -55 -25 -149 0
-77 4 -115 17 -142 l17 -38 98 0 c102 0 115 -4 126 -32 3 -10 11 -18 17 -18
11 0 14 182 3 194 -4 4 -14 -8 -23 -26 l-15 -33 -96 -3 -97 -3 -11 32 c-26 76
-9 143 53 196 47 42 98 58 181 57 143 -1 231 -89 211 -212 -7 -48 -33 -82 -84
-110 -23 -13 -40 -27 -38 -30 6 -10 142 1 153 11 4 5 0 13 -9 18 -15 9 -16 13
-2 50 20 58 18 165 -5 214 -21 48 -86 108 -138 130 -55 23 -150 28 -197 11z"/>
<path d="M770 11765 c0 -86 7 -104 25 -62 10 22 12 22 258 25 136 1 247 6 247
11 0 17 -43 111 -51 111 -4 0 -9 -10 -11 -22 -3 -23 -3 -23 -221 -26 l-217 -2
-10 25 c-5 14 -12 25 -15 25 -3 0 -5 -38 -5 -85z"/>
<path d="M850 11618 c-67 -34 -93 -79 -88 -151 5 -69 27 -102 89 -134 58 -29
122 -30 179 0 57 29 82 64 88 125 6 71 -25 124 -92 157 -62 31 -118 32 -176 3z
m202 -75 c58 -29 45 -100 -25 -136 -51 -26 -163 -29 -200 -4 -52 34 -45 102
14 133 65 33 154 36 211 7z"/>
<path d="M1240 11276 c0 -13 -7 -27 -16 -30 -9 -3 -107 -6 -220 -6 l-204 0
-16 -26 c-19 -28 -30 -109 -20 -148 17 -67 104 -125 189 -126 61 0 106 19 141
61 24 28 27 40 23 77 -3 26 -14 53 -28 68 l-22 24 111 0 c61 0 113 4 116 9 8
12 -34 121 -45 121 -5 0 -9 -11 -9 -24z m-196 -128 c32 -46 16 -92 -41 -121
-92 -48 -228 12 -208 90 12 50 20 53 131 53 95 0 104 -2 118 -22z"/>
<path d="M804 10878 c-48 -23 -56 -86 -19 -141 19 -27 22 -37 12 -37 -24 0
-40 -28 -33 -55 8 -32 40 -65 63 -65 13 0 14 3 5 12 -30 30 -12 36 113 40 112
3 128 6 147 25 29 29 37 117 14 161 -21 40 -59 66 -85 57 -45 -14 -31 -65 18
-65 34 0 51 -17 51 -51 0 -32 -16 -47 -58 -55 -30 -6 -31 -4 -65 68 -48 105
-98 138 -163 106z m98 -70 c20 -16 58 -78 58 -95 0 -9 -18 -13 -58 -13 -53 0
-59 2 -75 29 -21 36 -21 50 0 73 19 21 52 23 75 6z"/>
<path d="M770 10475 c0 -86 7 -104 25 -62 10 22 12 22 258 25 136 1 247 6 247
11 0 17 -43 111 -51 111 -4 0 -9 -10 -11 -22 -3 -23 -3 -23 -221 -26 l-217 -2
-10 25 c-5 14 -12 25 -15 25 -3 0 -5 -38 -5 -85z"/>
<path d="M770 10088 c0 -91 3 -98 24 -56 11 21 19 23 118 26 l106 3 26 -31
c62 -74 16 -109 -142 -110 -77 0 -112 11 -112 35 0 7 -4 17 -10 20 -6 4 -10
-25 -10 -79 0 -51 4 -86 10 -86 6 0 10 7 10 15 0 26 37 35 154 35 109 0 116 1
145 26 46 38 41 93 -12 152 l-20 22 32 0 c37 0 37 8 6 83 -17 42 -35 49 -35
13 0 -23 -4 -25 -75 -31 -41 -4 -100 -4 -130 0 -47 5 -58 11 -65 31 -5 13 -12
24 -15 24 -3 0 -5 -41 -5 -92z"/>
<path d="M865 9780 c-89 -30 -133 -134 -88 -210 17 -29 79 -70 107 -70 24 0
19 15 -10 28 -30 14 -58 74 -48 105 10 35 55 76 93 87 63 17 61 20 61 -105 l0
-115 26 0 c68 0 120 69 111 148 -9 82 -68 131 -165 138 -31 2 -70 -1 -87 -6z
m216 -101 c15 -29 4 -65 -26 -85 -42 -27 -55 -13 -55 59 0 35 3 66 6 70 10 10
62 -21 75 -44z"/>
<path d="M1080 9456 c0 -24 -1 -24 -132 -28 -79 -2 -142 -9 -155 -16 -45 -25
-38 -95 12 -128 33 -22 41 -13 19 21 -29 45 -4 55 138 55 l118 0 0 -40 c0 -29
4 -40 15 -40 11 0 15 11 15 40 l0 40 55 0 c61 0 70 11 25 30 -16 7 -46 30 -65
51 -19 22 -37 39 -40 39 -3 0 -5 -11 -5 -24z"/>
<path d="M1079 9248 c-9 -13 -72 -43 -164 -78 -82 -31 -151 -62 -153 -69 -2
-6 41 -32 100 -59 l103 -48 -103 -40 c-66 -25 -102 -44 -100 -52 2 -8 68 -38
148 -69 89 -34 154 -64 167 -79 12 -13 25 -24 28 -24 3 0 5 25 5 55 0 58 -5
66 -25 38 -11 -15 -21 -13 -114 22 -55 21 -100 40 -98 41 2 2 45 19 96 39 94
36 121 39 121 10 0 -8 5 -15 10 -15 6 0 10 33 10 80 0 47 -4 80 -10 80 -5 0
-10 -7 -10 -15 0 -8 -18 -24 -39 -35 l-39 -20 -71 32 c-39 17 -71 34 -71 37 0
8 180 71 203 71 9 0 17 -7 17 -16 0 -8 5 -12 10 -9 11 7 14 145 3 145 -5 -1
-15 -10 -24 -22z"/>
<path d="M850 8688 c-67 -34 -93 -79 -88 -151 5 -69 27 -102 89 -134 58 -29
122 -30 179 0 57 29 82 64 88 125 6 71 -25 124 -92 157 -62 31 -118 32 -176 3z
m202 -75 c58 -29 45 -100 -25 -136 -51 -26 -163 -29 -200 -4 -52 34 -45 102
14 133 65 33 154 36 211 7z"/>
<path d="M770 8261 c0 -54 4 -91 10 -91 6 0 10 9 10 20 0 30 31 40 127 40 83
0 99 -4 141 -36 2 -1 -2 -19 -9 -39 -12 -33 -12 -38 5 -50 18 -14 45 -10 58 9
16 23 7 56 -23 85 l-31 31 32 0 c36 0 36 9 5 83 -17 42 -35 49 -35 13 0 -29
-28 -36 -141 -36 -85 0 -129 12 -129 34 0 8 -4 18 -10 21 -6 4 -10 -27 -10
-84z"/>
<path d="M770 8010 c0 -53 4 -90 10 -90 6 0 10 9 10 20 0 28 33 41 97 38 l57
-3 -66 -52 c-64 -52 -88 -63 -88 -43 0 6 -4 10 -10 10 -6 0 -10 -35 -10 -85 0
-50 4 -85 10 -85 6 0 10 8 10 18 0 19 40 60 129 132 l53 44 54 -56 c32 -33 57
-69 60 -87 11 -56 24 -32 24 44 0 77 -4 87 -25 59 -10 -14 -18 -9 -64 42 l-52
59 166 3 c91 1 165 4 165 6 0 2 -10 29 -21 60 -23 59 -39 72 -39 32 0 -33 -17
-36 -228 -36 -190 0 -222 6 -222 40 0 11 -4 20 -10 20 -6 0 -10 -37 -10 -90z"/>
<path d="M6869 19017 c-165 -125 -198 -385 -72 -552 40 -51 118 -113 129 -102
4 3 -14 26 -39 51 -62 62 -78 114 -84 261 -4 91 -1 136 11 183 17 68 55 133
92 157 24 15 32 35 15 35 -5 0 -29 -15 -52 -33z"/>
<path d="M7326 19043 c-4 -4 14 -27 38 -52 25 -25 52 -66 61 -91 40 -110 36
-312 -7 -412 -12 -27 -39 -64 -61 -83 -45 -39 -45 -55 0 -32 45 24 112 102
141 165 50 110 41 269 -22 377 -37 62 -133 145 -150 128z"/>
<path d="M7093 19029 c-17 -5 -45 -26 -62 -46 -44 -54 -63 -119 -63 -220 0
-78 3 -92 34 -151 57 -111 141 -132 219 -53 46 45 69 118 69 216 0 175 -85
285 -197 254z m82 -53 c9 -13 20 -39 26 -57 14 -48 12 -246 -3 -298 -15 -50
-55 -86 -85 -77 -47 15 -80 146 -68 274 12 130 36 182 85 182 20 0 35 -8 45
-24z"/>
<path d="M5130 19023 c0 -5 15 -16 33 -24 l32 -14 0 -215 0 -215 -32 -10 c-59
-17 -35 -25 77 -25 67 0 110 4 110 10 0 6 -10 10 -23 10 -40 0 -47 18 -47 116
l0 92 68 -1 c111 -1 164 42 165 135 1 58 -22 94 -76 121 -28 14 -70 20 -172
24 -84 4 -135 2 -135 -4z m261 -59 c29 -26 40 -79 26 -122 -14 -43 -66 -74
-109 -65 l-28 5 0 97 c0 54 3 101 8 105 12 13 82 -1 103 -20z"/>
<path d="M5582 18849 c-24 -10 -41 -23 -37 -28 3 -6 12 -8 19 -5 29 11 37 -22
34 -142 -3 -112 -4 -120 -25 -129 -42 -18 -24 -25 62 -25 86 0 104 7 63 25
-22 9 -23 17 -26 119 -2 99 -1 111 18 132 21 21 23 21 50 6 23 -14 31 -14 44
-3 9 7 16 21 16 30 0 46 -66 56 -105 16 l-25 -24 0 24 c0 31 -26 32 -88 4z"/>
<path d="M5915 18860 c-53 -22 -90 -81 -100 -156 -6 -42 -3 -57 22 -103 46
-89 133 -116 217 -68 113 64 114 267 2 321 -36 17 -108 20 -141 6z m109 -50
c68 -81 58 -239 -17 -263 -38 -12 -73 12 -98 69 -33 77 -20 200 23 217 35 14
67 6 92 -23z"/>
<path d="M6264 18851 c-52 -32 -78 -85 -78 -161 0 -77 21 -122 74 -157 78 -53
187 -2 206 97 7 33 -11 43 -20 12 -11 -34 -53 -64 -89 -65 -43 -1 -65 16 -88
68 -41 88 -8 190 60 190 22 0 37 -6 42 -17 5 -10 13 -26 18 -35 5 -11 19 -18
37 -18 24 0 30 5 32 26 2 19 -5 33 -28 53 -40 33 -118 36 -166 7z"/>
<path d="M6559 14847 c-165 -125 -198 -385 -72 -552 40 -51 118 -113 129 -102
4 3 -14 26 -39 51 -62 62 -78 114 -84 261 -4 91 -1 136 11 183 17 68 55 133
92 157 24 15 32 35 15 35 -5 0 -29 -15 -52 -33z"/>
<path d="M7646 14873 c-4 -4 14 -27 38 -52 25 -25 52 -66 61 -91 40 -110 36
-312 -7 -412 -12 -27 -39 -64 -61 -83 -45 -39 -45 -55 0 -32 45 24 112 102
141 165 50 110 41 269 -22 377 -37 62 -133 145 -150 128z"/>
<path d="M7402 14840 c-34 -16 -62 -34 -62 -40 0 -7 8 -9 20 -5 46 14 50 -4
50 -209 0 -204 -3 -216 -48 -216 -13 0 -20 -4 -17 -10 8 -12 195 -13 195 -1 0
5 -13 11 -30 15 l-30 6 0 239 c0 132 -4 242 -8 245 -5 3 -36 -8 -70 -24z"/>
<path d="M4820 14853 c0 -5 15 -16 33 -24 l32 -14 0 -215 0 -215 -32 -10 c-59
-17 -35 -25 77 -25 67 0 110 4 110 10 0 6 -10 10 -23 10 -40 0 -47 18 -47 116
l0 92 68 -1 c111 -1 164 42 165 135 1 58 -22 94 -76 121 -28 14 -70 20 -172
24 -84 4 -135 2 -135 -4z m261 -59 c29 -26 40 -79 26 -122 -14 -43 -66 -74
-109 -65 l-28 5 0 97 c0 54 3 101 8 105 12 13 82 -1 103 -20z"/>
<path d="M5272 14679 c-24 -10 -41 -23 -37 -28 3 -6 12 -8 19 -5 29 11 37 -22
34 -142 -3 -112 -4 -120 -25 -129 -42 -18 -24 -25 62 -25 86 0 104 7 63 25
-22 9 -23 17 -26 119 -2 99 -1 111 18 132 21 21 23 21 50 6 23 -14 31 -14 44
-3 9 7 16 21 16 30 0 46 -66 56 -105 16 l-25 -24 0 24 c0 31 -26 32 -88 4z"/>
<path d="M5605 14690 c-53 -22 -90 -81 -100 -156 -6 -42 -3 -57 22 -103 46
-89 133 -116 217 -68 113 64 114 267 2 321 -36 17 -108 20 -141 6z m109 -50
c68 -81 58 -239 -17 -263 -38 -12 -73 12 -98 69 -33 77 -20 200 23 217 35 14
67 6 92 -23z"/>
<path d="M5964 14681 c-52 -32 -78 -85 -78 -161 0 -77 21 -122 74 -157 78 -53
187 -2 206 97 7 33 -11 43 -20 12 -11 -34 -53 -64 -89 -65 -43 -1 -65 16 -88
68 -41 88 -8 190 60 190 22 0 37 -6 42 -17 5 -10 13 -26 18 -35 5 -11 19 -18
37 -18 24 0 30 5 32 26 2 19 -5 33 -28 53 -40 33 -118 36 -166 7z"/>
<path d="M6672 14679 c-24 -10 -40 -23 -37 -29 4 -6 11 -8 16 -4 5 3 16 0 24
-6 12 -10 15 -38 15 -122 0 -111 -9 -148 -35 -148 -8 0 -15 -4 -15 -10 0 -6
35 -10 85 -10 47 0 85 4 85 9 0 5 -10 11 -22 13 -22 3 -23 7 -26 120 -3 115
-2 116 24 137 35 27 69 27 88 -1 12 -17 16 -49 16 -128 0 -109 -7 -130 -42
-130 -10 0 -18 -4 -18 -10 0 -6 37 -10 90 -10 50 0 90 4 90 9 0 5 -10 11 -22
13 -22 3 -23 8 -29 133 -3 72 -11 141 -18 153 -26 48 -88 56 -145 17 l-36 -24
0 24 c0 31 -26 32 -88 4z"/>
<path d="M7030 14520 l0 -30 95 0 95 0 0 30 0 30 -95 0 -95 0 0 -30z"/>
<path d="M9300 5199 c0 -87 11 -111 23 -49 l7 30 176 0 c98 0 175 -2 172 -5
-2 -3 -87 -43 -189 -90 -101 -46 -184 -90 -184 -97 0 -7 85 -51 188 -99 103
-47 191 -89 194 -93 11 -11 -327 -7 -348 4 -11 6 -19 21 -19 35 0 14 -4 25
-10 25 -6 0 -10 -44 -10 -111 0 -104 10 -135 23 -71 8 38 29 42 221 42 201 0
225 -5 233 -42 11 -57 23 -37 23 39 l0 78 -189 85 c-104 47 -186 88 -183 91 4
3 89 43 190 89 l182 84 0 73 c0 42 -4 73 -10 73 -5 0 -10 -9 -10 -19 0 -44
-32 -51 -227 -51 -201 0 -233 6 -233 45 0 14 -4 25 -10 25 -6 0 -10 -37 -10
-91z"/>
<path d="M9380 4588 c-67 -34 -93 -79 -88 -151 5 -69 27 -102 89 -134 58 -29
122 -30 179 0 57 29 82 64 88 125 6 71 -25 124 -92 157 -62 31 -118 32 -176 3z
m202 -75 c58 -29 45 -100 -25 -136 -51 -26 -163 -29 -200 -4 -52 34 -45 102
14 133 65 33 154 36 211 7z"/>
<path d="M9375 4226 c-53 -23 -85 -71 -85 -125 0 -26 7 -56 15 -67 19 -25 19
-34 0 -34 -8 0 -15 -6 -15 -14 0 -26 40 -107 49 -101 6 3 8 12 5 20 -11 29 34
35 260 35 124 0 226 3 226 7 0 17 -44 113 -52 113 -4 0 -8 -11 -8 -24 0 -26
-28 -36 -102 -36 -34 0 -39 3 -33 18 25 57 18 105 -22 153 -52 62 -164 87
-238 55z m205 -84 c32 -24 48 -67 34 -90 -21 -34 -75 -52 -160 -52 -84 0 -101
8 -117 53 -9 23 17 73 45 88 62 33 154 34 198 1z"/>
<path d="M9618 3863 l-13 -28 -132 -5 c-122 -5 -133 -7 -157 -29 -35 -33 -35
-84 -1 -134 l26 -37 -26 0 c-18 0 -25 -5 -25 -19 0 -28 40 -112 50 -106 5 3 6
13 3 21 -10 28 18 34 160 34 l137 0 0 60 c0 63 -8 75 -25 38 -9 -22 -17 -23
-122 -26 -110 -3 -111 -2 -132 24 -25 32 -27 67 -5 88 12 13 41 16 150 16
l134 0 0 65 c0 36 -2 65 -4 65 -3 0 -11 -12 -18 -27z"/>
<path d="M6302 3648 c-34 -34 6 -90 48 -68 25 13 28 65 4 74 -24 9 -39 7 -52
-6z"/>
<path d="M9300 3405 c0 -86 7 -104 25 -62 10 22 12 22 258 25 136 1 247 6 247
11 0 17 -43 111 -51 111 -4 0 -9 -10 -11 -22 -3 -23 -3 -23 -221 -26 l-217 -2
-10 25 c-5 14 -12 25 -15 25 -3 0 -5 -38 -5 -85z"/>
<path d="M6300 3396 c-28 -35 11 -93 48 -70 35 22 22 84 -18 84 -10 0 -23 -7
-30 -14z"/>
<path d="M9395 3270 c-89 -30 -133 -134 -88 -210 17 -29 79 -70 107 -70 24 0
19 15 -10 28 -30 14 -58 74 -48 105 10 35 55 76 93 87 63 17 61 20 61 -105 l0
-115 26 0 c68 0 120 69 111 148 -9 82 -68 131 -165 138 -31 2 -70 -1 -87 -6z
m216 -101 c15 -29 4 -65 -26 -85 -42 -27 -55 -13 -55 59 0 35 3 66 6 70 10 10
62 -21 75 -44z"/>
<path d="M6300 3146 c-28 -35 11 -93 48 -70 35 22 22 84 -18 84 -10 0 -23 -7
-30 -14z"/>
<path d="M9590 2756 c0 -31 -20 -36 -138 -36 -96 0 -132 10 -132 35 0 8 -4 15
-10 15 -6 0 -10 -35 -10 -85 0 -50 4 -85 10 -85 6 0 10 9 10 20 0 10 9 24 19
30 22 11 200 14 217 2 20 -14 44 -57 44 -79 0 -40 -35 -53 -146 -53 -116 0
-134 4 -134 31 0 10 -4 19 -10 19 -6 0 -10 -35 -10 -85 0 -47 4 -85 9 -85 5 0
11 10 13 23 3 21 7 22 120 25 l118 3 20 -33 c23 -39 25 -57 6 -83 -11 -15 -31
-19 -118 -23 -113 -5 -148 4 -148 38 0 11 -4 20 -10 20 -6 0 -10 -35 -10 -85
0 -50 4 -85 10 -85 6 0 10 7 10 15 0 26 38 35 155 35 l117 0 30 30 c27 27 30
36 25 72 -3 24 -16 51 -32 68 l-26 27 32 32 c28 28 31 37 26 72 -3 22 -17 55
-32 74 l-26 35 32 0 c35 0 35 9 4 83 -17 42 -35 49 -35 13z"/>
<path d="M9440 2080 l0 -100 30 0 30 0 0 100 0 100 -30 0 -30 0 0 -100z"/>
<path d="M9742 1846 c9 -47 0 -50 -179 -54 -197 -5 -237 2 -241 41 -2 15 -8
27 -13 27 -5 0 -9 -45 -9 -101 0 -64 4 -98 10 -94 6 3 10 14 10 24 0 38 16 41
257 41 153 0 233 4 233 10 0 15 -59 130 -66 130 -4 0 -4 -11 -2 -24z"/>
<path d="M6859 5667 c-165 -125 -198 -385 -72 -552 40 -51 118 -113 129 -102
4 3 -14 26 -39 51 -62 62 -78 114 -84 261 -4 91 -1 136 11 183 17 68 55 133
92 157 24 15 32 35 15 35 -5 0 -29 -15 -52 -33z"/>
<path d="M7316 5693 c-4 -4 14 -27 38 -52 25 -25 52 -66 61 -91 40 -110 36
-312 -7 -412 -12 -27 -39 -64 -61 -83 -45 -39 -45 -55 0 -32 45 24 112 102
141 165 50 110 41 269 -22 377 -37 62 -133 145 -150 128z"/>
<path d="M7083 5679 c-17 -5 -45 -26 -62 -46 -44 -54 -63 -119 -63 -220 0 -78
3 -92 34 -151 57 -111 141 -132 219 -53 46 45 69 118 69 216 0 175 -85 285
-197 254z m82 -53 c9 -13 20 -39 26 -57 14 -48 12 -246 -3 -298 -15 -50 -55
-86 -85 -77 -77 24 -97 328 -28 432 21 33 69 33 90 0z"/>
<path d="M5120 5673 c0 -5 15 -16 33 -24 l32 -14 0 -215 0 -215 -32 -10 c-59
-17 -35 -25 77 -25 67 0 110 4 110 10 0 6 -10 10 -23 10 -40 0 -47 18 -47 116
l0 92 68 -1 c111 -1 164 42 165 135 1 58 -22 94 -76 121 -28 14 -70 20 -172
24 -84 4 -135 2 -135 -4z m261 -59 c29 -26 40 -79 26 -122 -14 -43 -66 -74
-109 -65 l-28 5 0 97 c0 54 3 101 8 105 12 13 82 -1 103 -20z"/>
<path d="M5572 5499 c-24 -10 -41 -23 -37 -28 3 -6 12 -8 19 -5 29 11 37 -22
34 -142 -3 -112 -4 -120 -25 -129 -42 -18 -24 -25 62 -25 86 0 104 7 63 25
-22 9 -23 17 -26 119 -2 99 -1 111 18 132 21 21 23 21 50 6 23 -14 31 -14 44
-3 9 7 16 21 16 30 0 46 -66 56 -105 16 l-25 -24 0 24 c0 31 -26 32 -88 4z"/>
<path d="M5905 5510 c-53 -22 -90 -81 -100 -156 -6 -42 -3 -57 22 -103 46 -89
133 -116 217 -68 113 64 114 267 2 321 -36 17 -108 20 -141 6z m109 -50 c68
-81 58 -239 -17 -263 -38 -12 -73 12 -98 69 -33 77 -20 200 23 217 35 14 67 6
92 -23z"/>
<path d="M6264 5501 c-52 -32 -78 -85 -78 -161 0 -77 21 -122 74 -157 78 -53
187 -2 206 97 7 33 -11 43 -20 12 -11 -34 -53 -64 -89 -65 -43 -1 -65 16 -88
68 -41 88 -8 190 60 190 22 0 37 -6 42 -17 5 -10 13 -26 18 -35 5 -11 19 -18
37 -18 24 0 30 5 32 26 2 19 -5 33 -28 53 -40 33 -118 36 -166 7z"/>
<path d="M6539 1507 c-165 -125 -198 -385 -72 -552 40 -51 118 -113 129 -102
4 3 -14 26 -39 51 -62 62 -78 114 -84 261 -4 91 -1 136 11 183 17 68 55 133
92 157 24 15 32 35 15 35 -5 0 -29 -15 -52 -33z"/>
<path d="M7626 1533 c-4 -4 14 -27 38 -52 25 -25 52 -66 61 -91 40 -110 36
-312 -7 -412 -12 -27 -39 -64 -61 -83 -45 -39 -45 -55 0 -32 45 24 112 102
141 165 50 110 41 269 -22 377 -37 62 -133 145 -150 128z"/>
<path d="M7382 1500 c-34 -16 -62 -34 -62 -40 0 -7 8 -9 20 -5 46 14 50 -4 50
-209 0 -204 -3 -216 -48 -216 -13 0 -20 -4 -17 -10 8 -12 195 -13 195 -1 0 5
-13 11 -30 15 l-30 6 0 239 c0 132 -4 242 -8 245 -5 3 -36 -8 -70 -24z"/>
<path d="M4800 1513 c0 -5 15 -16 33 -24 l32 -14 0 -215 0 -215 -32 -10 c-59
-17 -35 -25 77 -25 67 0 110 4 110 10 0 6 -10 10 -23 10 -40 0 -47 18 -47 116
l0 92 68 -1 c111 -1 164 42 165 135 1 58 -22 94 -76 121 -28 14 -70 20 -172
24 -84 4 -135 2 -135 -4z m261 -59 c29 -26 40 -79 26 -122 -14 -43 -66 -74
-109 -65 l-28 5 0 97 c0 54 3 101 8 105 12 13 82 -1 103 -20z"/>
<path d="M5252 1339 c-24 -10 -41 -23 -37 -28 3 -6 12 -8 19 -5 29 11 37 -22
34 -142 -3 -112 -4 -120 -25 -129 -42 -18 -24 -25 62 -25 86 0 104 7 63 25
-22 9 -23 17 -26 119 -2 99 -1 111 18 132 21 21 23 21 50 6 23 -14 31 -14 44
-3 9 7 16 21 16 30 0 46 -66 56 -105 16 l-25 -24 0 24 c0 31 -26 32 -88 4z"/>
<path d="M5585 1350 c-53 -22 -90 -81 -100 -156 -6 -42 -3 -57 22 -103 46 -89
133 -116 217 -68 113 64 114 267 2 321 -36 17 -108 20 -141 6z m109 -50 c68
-81 58 -239 -17 -263 -38 -12 -73 12 -98 69 -33 77 -20 200 23 217 35 14 67 6
92 -23z"/>
<path d="M5944 1341 c-52 -32 -78 -85 -78 -161 0 -77 21 -122 74 -157 78 -53
187 -2 206 97 7 33 -11 43 -20 12 -11 -34 -53 -64 -89 -65 -43 -1 -65 16 -88
68 -41 88 -8 190 60 190 22 0 37 -6 42 -17 5 -10 13 -26 18 -35 5 -11 19 -18
37 -18 24 0 30 5 32 26 2 19 -5 33 -28 53 -40 33 -118 36 -166 7z"/>
<path d="M6652 1339 c-24 -10 -40 -23 -37 -29 4 -6 11 -8 16 -4 5 3 16 0 24
-6 12 -10 15 -38 15 -122 0 -111 -9 -148 -35 -148 -8 0 -15 -4 -15 -10 0 -6
35 -10 85 -10 47 0 85 4 85 9 0 5 -10 11 -22 13 -22 3 -23 7 -26 120 -3 115
-2 116 24 137 35 27 69 27 88 -1 12 -17 16 -49 16 -128 0 -109 -7 -130 -42
-130 -10 0 -18 -4 -18 -10 0 -6 37 -10 90 -10 50 0 90 4 90 9 0 5 -10 11 -22
13 -22 3 -23 8 -29 133 -3 72 -11 141 -18 153 -26 48 -88 56 -145 17 l-36 -24
0 24 c0 31 -26 32 -88 4z"/>
<path d="M7020 1180 l0 -30 95 0 95 0 0 30 0 30 -95 0 -95 0 0 -30z"/>
<path d="M10850 19781 c0 -67 4 -111 10 -111 6 0 10 11 10 25 0 14 8 29 19 35
12 6 98 10 211 10 113 0 199 -4 211 -10 11 -6 19 -21 19 -35 0 -14 5 -25 10
-25 6 0 10 44 10 111 0 71 -4 108 -10 104 -5 -3 -10 -14 -10 -24 0 -38 -17
-41 -230 -41 -213 0 -230 3 -230 41 0 10 -4 21 -10 24 -6 4 -10 -33 -10 -104z"/>
<path d="M11020 19621 c-76 -23 -148 -90 -170 -156 -8 -23 -11 -65 -8 -106 4
-57 11 -75 40 -116 111 -155 376 -137 457 30 28 59 29 155 0 213 -52 108 -201
171 -319 135z m227 -113 c93 -47 111 -162 36 -230 -58 -53 -238 -67 -322 -26
-65 32 -94 79 -88 141 5 61 42 101 118 128 74 27 192 21 256 -13z"/>
<path d="M6302 10358 c-34 -34 6 -90 48 -68 25 13 28 65 4 74 -24 9 -39 7 -52
-6z"/>
<path d="M6300 10106 c-28 -35 11 -93 48 -70 35 22 22 84 -18 84 -10 0 -23 -7
-30 -14z"/>
<path d="M6300 9856 c-28 -35 11 -93 48 -70 35 22 22 84 -18 84 -10 0 -23 -7
-30 -14z"/>
</g>
</svg>
