<svg width="3845" height="2525" xmlns="http://www.w3.org/2000/svg" xmlns:xlink="http://www.w3.org/1999/xlink" xml:space="preserve" overflow="hidden"><g transform="translate(-96 0)"><g><rect x="460.5" y="492.5" width="461" height="1195" stroke="#AEAEAE" stroke-width="6.875" stroke-linecap="butt" stroke-linejoin="miter" stroke-miterlimit="8" stroke-opacity="1" fill="none"/><text fill="#AEAEAE" fill-opacity="1" font-family="Times New Roman,Times New Roman_MSFontService,sans-serif" font-style="normal" font-variant="normal" font-weight="400" font-stretch="normal" font-size="83" text-anchor="start" direction="ltr" writing-mode="lr-tb" unicode-bidi="normal" text-decoration="none" transform="matrix(1 0 0 1 511.796 1070)">Instruction</text><text fill="#AEAEAE" fill-opacity="1" font-family="Times New Roman,Times New Roman_MSFontService,sans-serif" font-style="normal" font-variant="normal" font-weight="400" font-stretch="normal" font-size="83" text-anchor="start" direction="ltr" writing-mode="lr-tb" unicode-bidi="normal" text-decoration="none" transform="matrix(1 0 0 1 548.462 1169)">Memory</text><rect x="1982.5" y="494.5" width="185" height="1195" stroke="#000000" stroke-width="6.875" stroke-linecap="butt" stroke-linejoin="miter" stroke-miterlimit="8" stroke-opacity="1" fill="#D1D1D1" fill-opacity="1"/><text fill="#000000" fill-opacity="1" font-family="Times New Roman,Times New Roman_MSFontService,sans-serif" font-style="normal" font-variant="normal" font-weight="400" font-stretch="normal" font-size="83" text-anchor="start" direction="ltr" writing-mode="lr-tb" unicode-bidi="normal" text-decoration="none" transform="matrix(1 0 0 1 2050.22 1020)">L</text><text fill="#000000" fill-opacity="1" font-family="Times New Roman,Times New Roman_MSFontService,sans-serif" font-style="normal" font-variant="normal" font-weight="400" font-stretch="normal" font-size="83" text-anchor="start" direction="ltr" writing-mode="lr-tb" unicode-bidi="normal" text-decoration="none" transform="matrix(1 0 0 1 2045.22 1127)">D</text><text fill="#000000" fill-opacity="1" font-family="Times New Roman,Times New Roman_MSFontService,sans-serif" font-style="normal" font-variant="normal" font-weight="400" font-stretch="normal" font-size="83" text-anchor="start" direction="ltr" writing-mode="lr-tb" unicode-bidi="normal" text-decoration="none" transform="matrix(1 0 0 1 2038.22 1233)">M</text><rect x="2544.5" y="492.5" width="185" height="1195" stroke="#000000" stroke-width="6.875" stroke-linecap="butt" stroke-linejoin="miter" stroke-miterlimit="8" stroke-opacity="1" fill="#D1D1D1" fill-opacity="1"/><text fill="#000000" fill-opacity="1" font-family="Times New Roman,Times New Roman_MSFontService,sans-serif" font-style="normal" font-variant="normal" font-weight="400" font-stretch="normal" font-size="83" text-anchor="start" direction="ltr" writing-mode="lr-tb" unicode-bidi="normal" text-decoration="none" transform="matrix(1 0 0 1 2614.03 1017)">S</text><text fill="#000000" fill-opacity="1" font-family="Times New Roman,Times New Roman_MSFontService,sans-serif" font-style="normal" font-variant="normal" font-weight="400" font-stretch="normal" font-size="83" text-anchor="start" direction="ltr" writing-mode="lr-tb" unicode-bidi="normal" text-decoration="none" transform="matrix(1 0 0 1 2607.03 1124)">D</text><text fill="#000000" fill-opacity="1" font-family="Times New Roman,Times New Roman_MSFontService,sans-serif" font-style="normal" font-variant="normal" font-weight="400" font-stretch="normal" font-size="83" text-anchor="start" direction="ltr" writing-mode="lr-tb" unicode-bidi="normal" text-decoration="none" transform="matrix(1 0 0 1 2600.03 1230)">M</text><path d="M2358.5 1893.5 2317.79 1975.5 2246.21 1975.5 2205.5 1893.5Z" stroke="#AEAEAE" stroke-width="6.875" stroke-linecap="butt" stroke-linejoin="miter" stroke-miterlimit="8" stroke-opacity="1" fill="none" fill-rule="evenodd"/><rect x="1144.5" y="458.5" width="461" height="129" stroke="#AEAEAE" stroke-width="6.875" stroke-linecap="butt" stroke-linejoin="miter" stroke-miterlimit="8" stroke-opacity="1" fill="none"/><text fill="#AEAEAE" fill-opacity="1" font-family="Times New Roman,Times New Roman_MSFontService,sans-serif" font-style="normal" font-variant="normal" font-weight="400" font-stretch="normal" font-size="83" text-anchor="start" direction="ltr" writing-mode="lr-tb" unicode-bidi="normal" text-decoration="none" transform="matrix(1 0 0 1 1257.78 553)">SRAM</text><rect x="1144.5" y="587.5" width="461" height="129" stroke="#000000" stroke-width="6.875" stroke-linecap="butt" stroke-linejoin="miter" stroke-miterlimit="8" stroke-opacity="1" fill="#D1D1D1" fill-opacity="1"/><text fill="#000000" fill-opacity="1" font-family="Times New Roman,Times New Roman_MSFontService,sans-serif" font-style="normal" font-variant="normal" font-weight="400" font-stretch="normal" font-size="83" text-anchor="start" direction="ltr" writing-mode="lr-tb" unicode-bidi="normal" text-decoration="none" transform="matrix(1 0 0 1 1331.11 682)">rs</text><text fill="#000000" fill-opacity="1" font-family="Times New Roman,Times New Roman_MSFontService,sans-serif" font-style="normal" font-variant="normal" font-weight="400" font-stretch="normal" font-size="55" text-anchor="start" direction="ltr" writing-mode="lr-tb" unicode-bidi="normal" text-decoration="none" transform="matrix(1 0 0 1 1390.7 702)">1</text><rect x="1144.5" y="716.5" width="461" height="128" stroke="#000000" stroke-width="6.875" stroke-linecap="butt" stroke-linejoin="miter" stroke-miterlimit="8" stroke-opacity="1" fill="#D1D1D1" fill-opacity="1"/><text fill="#000000" fill-opacity="1" font-family="Times New Roman,Times New Roman_MSFontService,sans-serif" font-style="normal" font-variant="normal" font-weight="400" font-stretch="normal" font-size="83" text-anchor="start" direction="ltr" writing-mode="lr-tb" unicode-bidi="normal" text-decoration="none" transform="matrix(1 0 0 1 1250.91 810)">rs</text><text fill="#000000" fill-opacity="1" font-family="Times New Roman,Times New Roman_MSFontService,sans-serif" font-style="normal" font-variant="normal" font-weight="400" font-stretch="normal" font-size="55" text-anchor="start" direction="ltr" writing-mode="lr-tb" unicode-bidi="normal" text-decoration="none" transform="matrix(1 0 0 1 1310.49 830)">1</text><text fill="#000000" fill-opacity="1" font-family="Times New Roman,Times New Roman_MSFontService,sans-serif" font-style="normal" font-variant="normal" font-weight="400" font-stretch="normal" font-size="83" text-anchor="start" direction="ltr" writing-mode="lr-tb" unicode-bidi="normal" text-decoration="none" transform="matrix(1 0 0 1 1337.99 810)">local</text><rect x="1144.5" y="1101.5" width="461" height="129" stroke="#AEAEAE" stroke-width="6.875" stroke-linecap="butt" stroke-linejoin="miter" stroke-miterlimit="8" stroke-opacity="1" fill="none"/><text fill="#AEAEAE" fill-opacity="1" font-family="Times New Roman,Times New Roman_MSFontService,sans-serif" font-style="normal" font-variant="normal" font-weight="400" font-stretch="normal" font-size="83" text-anchor="start" direction="ltr" writing-mode="lr-tb" unicode-bidi="normal" text-decoration="none" transform="matrix(1 0 0 1 1279.2 1196)">SW</text><text fill="#AEAEAE" fill-opacity="1" font-family="Times New Roman,Times New Roman_MSFontService,sans-serif" font-style="normal" font-variant="normal" font-weight="400" font-stretch="normal" font-size="55" text-anchor="start" direction="ltr" writing-mode="lr-tb" unicode-bidi="normal" text-decoration="none" transform="matrix(1 0 0 1 1399.65 1216)">idx</text><rect x="1144.5" y="1228.5" width="461" height="129" stroke="#AEAEAE" stroke-width="6.875" stroke-linecap="butt" stroke-linejoin="miter" stroke-miterlimit="8" stroke-opacity="1" fill="none"/><text fill="#AEAEAE" fill-opacity="1" font-family="Times New Roman,Times New Roman_MSFontService,sans-serif" font-style="normal" font-variant="normal" font-weight="400" font-stretch="normal" font-size="83" text-anchor="start" direction="ltr" writing-mode="lr-tb" unicode-bidi="normal" text-decoration="none" transform="matrix(1 0 0 1 1258.93 1323)">SW</text><text fill="#AEAEAE" fill-opacity="1" font-family="Times New Roman,Times New Roman_MSFontService,sans-serif" font-style="normal" font-variant="normal" font-weight="400" font-stretch="normal" font-size="55" text-anchor="start" direction="ltr" writing-mode="lr-tb" unicode-bidi="normal" text-decoration="none" transform="matrix(1 0 0 1 1382.68 1343)">local</text><rect x="1144.5" y="843.5" width="461" height="129" stroke="#000000" stroke-width="6.875" stroke-linecap="butt" stroke-linejoin="miter" stroke-miterlimit="8" stroke-opacity="1" fill="#D1D1D1" fill-opacity="1"/><text fill="#000000" fill-opacity="1" font-family="Times New Roman,Times New Roman_MSFontService,sans-serif" font-style="normal" font-variant="normal" font-weight="400" font-stretch="normal" font-size="83" text-anchor="start" direction="ltr" writing-mode="lr-tb" unicode-bidi="normal" text-decoration="none" transform="matrix(1 0 0 1 1331.11 938)">rs</text><text fill="#000000" fill-opacity="1" font-family="Times New Roman,Times New Roman_MSFontService,sans-serif" font-style="normal" font-variant="normal" font-weight="400" font-stretch="normal" font-size="55" text-anchor="start" direction="ltr" writing-mode="lr-tb" unicode-bidi="normal" text-decoration="none" transform="matrix(1 0 0 1 1390.7 958)">n</text><rect x="1144.5" y="1357.5" width="461" height="129" stroke="#AEAEAE" stroke-width="6.875" stroke-linecap="butt" stroke-linejoin="miter" stroke-miterlimit="8" stroke-opacity="1" fill="none"/><text fill="#AEAEAE" fill-opacity="1" font-family="Times New Roman,Times New Roman_MSFontService,sans-serif" font-style="normal" font-variant="normal" font-weight="400" font-stretch="normal" font-size="83" text-anchor="start" direction="ltr" writing-mode="lr-tb" unicode-bidi="normal" text-decoration="none" transform="matrix(1 0 0 1 1270.1 1452)">SW</text><text fill="#AEAEAE" fill-opacity="1" font-family="Times New Roman,Times New Roman_MSFontService,sans-serif" font-style="normal" font-variant="normal" font-weight="400" font-stretch="normal" font-size="55" text-anchor="start" direction="ltr" writing-mode="lr-tb" unicode-bidi="normal" text-decoration="none" transform="matrix(1 0 0 1 1393.85 1472)">fwd</text><rect x="1144.5" y="1615.5" width="461" height="129" stroke="#AEAEAE" stroke-width="6.875" stroke-linecap="butt" stroke-linejoin="miter" stroke-miterlimit="8" stroke-opacity="1" fill="none"/><text fill="#AEAEAE" fill-opacity="1" font-family="Times New Roman,Times New Roman_MSFontService,sans-serif" font-style="normal" font-variant="normal" font-weight="400" font-stretch="normal" font-size="83" text-anchor="start" direction="ltr" writing-mode="lr-tb" unicode-bidi="normal" text-decoration="none" transform="matrix(1 0 0 1 1246.32 1710)">Opcode</text><path d="M3.29479e-06-3.4375 353.608-3.43716 353.608 3.43784-3.29479e-06 3.4375ZM349.024-13.7497 376.524 0.000360892 349.024 13.7503Z" fill="#000000" fill-rule="nonzero" fill-opacity="1" transform="matrix(1 0 0 -1 1605.5 651.5)"/><path d="M1977.5 648.062 2516.4 648.063 2516.4 654.938 1977.5 654.937ZM2511.82 637.75 2539.32 651.5 2511.82 665.25Z" fill="#000000" fill-rule="nonzero" fill-opacity="1"/><path d="M0 3.4375-0.181344 3.4375 3.25616 0 3.25616 76.5467-0.181344 73.1092 1046.89 73.1092 1046.89 79.9842-3.61884 79.9842-3.61884-3.4375 0-3.4375ZM1042.31 62.7967 1069.81 76.5467 1042.31 90.2967Z" fill="#AEAEAE" fill-rule="nonzero" fill-opacity="1" transform="matrix(1.83697e-16 1 1 -1.83697e-16 2167.5 822.5)"/><path d="M2830.33 797.5 2830.33 1735.94 2329.5 1735.94 2332.94 1732.5 2332.94 1869.81C2332.94 1871.71 2331.4 1873.24 2329.5 1873.24 2327.6 1873.24 2326.06 1871.71 2326.06 1869.81L2326.06 1729.07 2826.89 1729.07 2823.45 1732.5 2823.45 797.5C2823.45 795.602 2824.99 794.062 2826.89 794.062 2828.79 794.062 2830.33 795.602 2830.33 797.5ZM2343.25 1865.22 2329.5 1892.72 2315.75 1865.22Z" fill="#AEAEAE" fill-rule="nonzero" fill-opacity="1"/><path d="M2729.5 797.5 2827.19 797.5" stroke="#AEAEAE" stroke-width="6.875" stroke-linecap="butt" stroke-linejoin="miter" stroke-miterlimit="8" stroke-opacity="1" fill="none" fill-rule="evenodd"/><path d="M1605.5 777.063 1919.05 777.063 1919.05 1934.77 1915.61 1931.34 2202.8 1931.34 2202.8 1938.21 1912.17 1938.21 1912.17 780.5 1915.61 783.938 1605.5 783.938ZM2198.22 1921.02 2225.72 1934.77 2198.22 1948.52Z" fill="#AEAEAE" fill-rule="nonzero" fill-opacity="1"/><text fill="#000000" fill-opacity="1" font-family="Aptos,Aptos_MSFontService,sans-serif" font-style="normal" font-variant="normal" font-weight="400" font-stretch="normal" font-size="83" text-anchor="start" direction="ltr" writing-mode="lr-tb" unicode-bidi="normal" text-decoration="none" transform="matrix(1 0 0 1 2405.74 1905)">…</text><path d="M1605.5 1549.5 1872.19 1549.5 1872.19 2078.05" stroke="#AEAEAE" stroke-width="6.875" stroke-linecap="butt" stroke-linejoin="miter" stroke-miterlimit="8" stroke-opacity="1" fill="none" fill-rule="evenodd"/><path d="M1872.5 2075.06 2081.98 2075.06 2081.98 2081.94 1872.5 2081.94ZM2077.39 2064.75 2104.89 2078.5 2077.39 2092.25Z" fill="#AEAEAE" fill-rule="nonzero" fill-opacity="1"/><rect x="2104.5" y="2018.5" width="658" height="128" stroke="#AEAEAE" stroke-width="6.875" stroke-linecap="butt" stroke-linejoin="miter" stroke-miterlimit="8" stroke-opacity="1" fill="none"/><text fill="#AEAEAE" fill-opacity="1" font-family="Times New Roman,Times New Roman_MSFontService,sans-serif" font-style="normal" font-variant="normal" font-weight="400" font-stretch="normal" font-size="83" text-anchor="start" direction="ltr" writing-mode="lr-tb" unicode-bidi="normal" text-decoration="none" transform="matrix(1 0 0 1 2353.05 2113)">LUT</text><path d="M2609.5 2279.5 2568.79 2361.5 2299.21 2361.5 2258.5 2279.5Z" stroke="#AEAEAE" stroke-width="6.875" stroke-linecap="butt" stroke-linejoin="miter" stroke-miterlimit="8" stroke-opacity="1" fill="none" fill-rule="evenodd"/><path d="M3.4375-2.91717e-05 3.43767 19.6098-3.43733 19.6098-3.4375 2.91717e-05ZM13.7501 15.0264 0.000360892 42.5265-13.7499 15.0266Z" fill="#AEAEAE" fill-rule="nonzero" fill-opacity="1" transform="matrix(-1 0 0 1 2282.5 1975.5)"/><path d="M2547.94 2146.5 2547.94 2256.5 2541.06 2256.5 2541.06 2146.5ZM2558.25 2251.91 2544.5 2279.41 2530.75 2251.91Z" fill="#AEAEAE" fill-rule="nonzero" fill-opacity="1"/><path d="M2436.94 2173.5 2436.94 2257.31 2430.06 2257.31 2430.06 2173.5ZM2447.25 2252.72 2433.5 2280.22 2419.75 2252.72Z" fill="#AEAEAE" fill-rule="nonzero" fill-opacity="1"/><path d="M2332.94 2226.5 2332.94 2256.95 2326.06 2256.95 2326.06 2226.5ZM2343.25 2252.36 2329.5 2279.86 2315.75 2252.36Z" fill="#AEAEAE" fill-rule="nonzero" fill-opacity="1"/><path d="M0 0 1260.92 0.000360892" stroke="#AEAEAE" stroke-width="6.875" stroke-linecap="round" stroke-linejoin="miter" stroke-miterlimit="8" stroke-opacity="1" fill="none" fill-rule="evenodd" transform="matrix(-1 0 0 1 2433.42 2173.5)"/><path d="M0 0 1153.17 0.000360892" stroke="#AEAEAE" stroke-width="6.875" stroke-linecap="round" stroke-linejoin="miter" stroke-miterlimit="8" stroke-opacity="1" fill="none" fill-rule="evenodd" transform="matrix(-1 0 0 1 2329.67 2226.5)"/><text fill="#AEAEAE" fill-opacity="1" font-family="Times New Roman,Times New Roman_MSFontService,sans-serif" font-style="normal" font-variant="normal" font-weight="400" font-stretch="normal" font-size="83" text-anchor="start" direction="ltr" writing-mode="lr-tb" unicode-bidi="normal" text-decoration="none" transform="matrix(1 0 0 1 1194.24 2152)">SRAM out</text><text fill="#AEAEAE" fill-opacity="1" font-family="Times New Roman,Times New Roman_MSFontService,sans-serif" font-style="normal" font-variant="normal" font-weight="400" font-stretch="normal" font-size="83" text-anchor="start" direction="ltr" writing-mode="lr-tb" unicode-bidi="normal" text-decoration="none" transform="matrix(1 0 0 1 1200.36 2305)">IO Input</text><path d="M1605.5 1677.06 1822.53 1677.06 1822.53 2321.15 1819.09 2317.72 2255.07 2317.72 2255.07 2324.59 1815.65 2324.59 1815.65 1680.5 1819.09 1683.94 1605.5 1683.94ZM2250.49 2307.4 2277.99 2321.15 2250.49 2334.9Z" fill="#AEAEAE" fill-rule="nonzero" fill-opacity="1"/><rect x="1144.5" y="1485.5" width="461" height="129" stroke="#AEAEAE" stroke-width="6.875" stroke-linecap="butt" stroke-linejoin="miter" stroke-miterlimit="8" stroke-opacity="1" fill="none"/><text fill="#AEAEAE" fill-opacity="1" font-family="Times New Roman,Times New Roman_MSFontService,sans-serif" font-style="normal" font-variant="normal" font-weight="400" font-stretch="normal" font-size="83" text-anchor="start" direction="ltr" writing-mode="lr-tb" unicode-bidi="normal" text-decoration="none" transform="matrix(1 0 0 1 1294.45 1580)">LUT</text><path d="M2687.5 1891.5 2647.29 1972.5 2574.71 1972.5 2534.5 1891.5Z" stroke="#AEAEAE" stroke-width="6.875" stroke-linecap="butt" stroke-linejoin="miter" stroke-miterlimit="8" stroke-opacity="1" fill="none" fill-rule="evenodd"/><path d="M3.4375-2.73338e-05 3.43768 22.4691-3.43732 22.4692-3.4375 2.73338e-05ZM13.7501 17.8857 0.000360892 45.3858-13.7499 17.8859Z" fill="#AEAEAE" fill-rule="nonzero" fill-opacity="1" transform="matrix(-1 0 0 1 2610.5 1972.5)"/><path d="M2.18531e-05-3.4375 33.8517-3.43728 33.8517 3.43772-2.18531e-05 3.4375ZM29.2685-13.7498 56.7684 0.000360892 29.2683 13.7502Z" fill="#AEAEAE" fill-rule="nonzero" fill-opacity="1" transform="matrix(1 0 0 -1 2497.5 1931.5)"/><path d="M2580.94 1831.5 2580.94 1871.37 2574.06 1871.37 2574.06 1831.5ZM2591.25 1866.79 2577.5 1894.29 2563.75 1866.79Z" fill="#AEAEAE" fill-rule="nonzero" fill-opacity="1"/><path d="M2646.94 1830.5 2646.94 1870.37 2640.06 1870.37 2640.06 1830.5ZM2657.25 1865.79 2643.5 1893.29 2629.75 1865.79Z" fill="#AEAEAE" fill-rule="nonzero" fill-opacity="1"/><path d="M0 0-82.5005 0-82.5005 680.713 1068.11 680.713" stroke="#AEAEAE" stroke-width="6.875" stroke-linecap="butt" stroke-linejoin="miter" stroke-miterlimit="8" stroke-opacity="1" fill="none" fill-rule="evenodd" transform="matrix(-6.12323e-17 -1 -1 6.12323e-17 2434.21 2361.61)"/><path d="M1751.5 1290.06 1962.24 1290.06 1962.24 1296.94 1751.5 1296.94ZM1957.66 1279.75 1985.16 1293.5 1957.66 1307.25Z" fill="#AEAEAE" fill-rule="nonzero" fill-opacity="1"/><path d="M2510.5 294.5 2469.79 376.5 2398.21 376.5 2357.5 294.5Z" stroke="#AEAEAE" stroke-width="6.875" stroke-linecap="butt" stroke-linejoin="miter" stroke-miterlimit="8" stroke-opacity="1" fill="none" fill-rule="evenodd"/><path d="M3401.5 981.5 3483.5 1022.21 3483.5 1093.79 3401.5 1134.5Z" stroke="#AEAEAE" stroke-width="6.875" stroke-linecap="butt" stroke-linejoin="miter" stroke-miterlimit="8" stroke-opacity="1" fill="none" fill-rule="evenodd"/><path d="M2433.5 2441.5 3063.26 2441.5" stroke="#AEAEAE" stroke-width="6.875" stroke-linecap="butt" stroke-linejoin="miter" stroke-miterlimit="8" stroke-opacity="1" fill="none" fill-rule="evenodd"/><path d="M3060.06 2441.34 3060.06 1103.84 3378.98 1103.71 3378.99 1110.58 3063.5 1110.71 3066.94 1107.27 3066.94 2441.34ZM3374.02 1093.53 3401.89 1106.5 3374.79 1121.02Z" fill="#AEAEAE" fill-rule="nonzero" fill-opacity="1"/><path d="M0-3.4375 919.967-3.4375 919.941 86.2973 913.066 86.2952 913.091-0.00103146 916.529 3.4375 0 3.4375ZM930.279 81.7907 916.374 109.213 902.779 81.6353Z" fill="#AEAEAE" fill-rule="nonzero" fill-opacity="1" transform="matrix(1.83697e-16 1 1 -1.83697e-16 2433.5 376.5)"/><path d="M2442.5 447.063 3068.11 447.063 3068.11 1002.69 3064.67 999.249 3095.3 999.249 3095.3 1006.12 3061.23 1006.12 3061.23 450.5 3064.67 453.938 2442.5 453.938ZM3090.72 988.937 3118.22 1002.69 3090.72 1016.44Z" fill="#AEAEAE" fill-rule="nonzero" fill-opacity="1"/><rect x="3117.5" y="925.5" width="101" height="156" stroke="#AEAEAE" stroke-width="6.875" stroke-linecap="butt" stroke-linejoin="miter" stroke-miterlimit="8" stroke-opacity="1" fill="none"/><path d="M3117.5 1081.5 3166.5 1013.5 3215.5 1081.5Z" stroke="#AEAEAE" stroke-width="6.875" stroke-linecap="round" stroke-linejoin="miter" stroke-miterlimit="8" stroke-opacity="1" fill="none" fill-rule="evenodd"/><path d="M6.77519e-06-3.4375 160.188-3.43718 160.188 3.43782-6.77519e-06 3.4375ZM155.605-13.7497 183.105 0.000360892 155.605 13.7503Z" fill="#AEAEAE" fill-rule="nonzero" fill-opacity="1" transform="matrix(1 0 0 -1 3218.5 1003.5)"/><path d="M1815.5 332.062 2354.4 332.063 2354.4 338.938 1815.5 338.938ZM2349.82 321.75 2377.32 335.5 2349.82 349.25Z" fill="#AEAEAE" fill-rule="nonzero" fill-opacity="1"/><text fill="#AEAEAE" fill-opacity="1" font-family="Times New Roman,Times New Roman_MSFontService,sans-serif" font-style="normal" font-variant="normal" font-weight="400" font-stretch="normal" font-size="83" text-anchor="start" direction="ltr" writing-mode="lr-tb" unicode-bidi="normal" text-decoration="none" transform="matrix(1 0 0 1 1802.75 413)">SW</text><text fill="#AEAEAE" fill-opacity="1" font-family="Times New Roman,Times New Roman_MSFontService,sans-serif" font-style="normal" font-variant="normal" font-weight="400" font-stretch="normal" font-size="55" text-anchor="start" direction="ltr" writing-mode="lr-tb" unicode-bidi="normal" text-decoration="none" transform="matrix(1 0 0 1 1926.5 433)">local</text><path d="M1803.5 192.5 2377.68 192.5" stroke="#AEAEAE" stroke-width="6.875" stroke-linecap="butt" stroke-linejoin="miter" stroke-miterlimit="8" stroke-opacity="1" fill="none" fill-rule="evenodd"/><path d="M1803.5 70.5 2466.97 70.5003" stroke="#AEAEAE" stroke-width="6.875" stroke-linecap="butt" stroke-linejoin="miter" stroke-miterlimit="8" stroke-opacity="1" fill="none" fill-rule="evenodd"/><text fill="#AEAEAE" fill-opacity="1" font-family="Times New Roman,Times New Roman_MSFontService,sans-serif" font-style="normal" font-variant="normal" font-weight="400" font-stretch="normal" font-size="83" text-anchor="start" direction="ltr" writing-mode="lr-tb" unicode-bidi="normal" text-decoration="none" transform="matrix(1 0 0 1 1808.56 277)">SIn</text><text fill="#AEAEAE" fill-opacity="1" font-family="Times New Roman,Times New Roman_MSFontService,sans-serif" font-style="normal" font-variant="normal" font-weight="400" font-stretch="normal" font-size="55" text-anchor="start" direction="ltr" writing-mode="lr-tb" unicode-bidi="normal" text-decoration="none" transform="matrix(1 0 0 1 1923.14 297)">local</text><text fill="#AEAEAE" fill-opacity="1" font-family="Times New Roman,Times New Roman_MSFontService,sans-serif" font-style="normal" font-variant="normal" font-weight="400" font-stretch="normal" font-size="83" text-anchor="start" direction="ltr" writing-mode="lr-tb" unicode-bidi="normal" text-decoration="none" transform="matrix(1 0 0 1 1807.38 143)">SIn</text><text fill="#AEAEAE" fill-opacity="1" font-family="Times New Roman,Times New Roman_MSFontService,sans-serif" font-style="normal" font-variant="normal" font-weight="400" font-stretch="normal" font-size="55" text-anchor="start" direction="ltr" writing-mode="lr-tb" unicode-bidi="normal" text-decoration="none" transform="matrix(1 0 0 1 1921.96 163)">global</text><path d="M2380.94 192.5 2380.94 272.542 2374.06 272.542 2374.06 192.5ZM2391.25 267.959 2377.5 295.459 2363.75 267.959Z" fill="#AEAEAE" fill-rule="nonzero" fill-opacity="1"/><path d="M2469.94 70.5 2469.94 272.328 2463.06 272.328 2463.06 70.5ZM2480.25 267.745 2466.5 295.245 2452.75 267.745Z" fill="#AEAEAE" fill-rule="nonzero" fill-opacity="1"/><text fill="#AEAEAE" fill-opacity="1" font-family="Times New Roman,Times New Roman_MSFontService,sans-serif" font-style="normal" font-variant="normal" font-weight="400" font-stretch="normal" font-size="83" text-anchor="start" direction="ltr" writing-mode="lr-tb" unicode-bidi="normal" text-decoration="none" transform="matrix(1 0 0 1 3321.9 795)">SW</text><text fill="#AEAEAE" fill-opacity="1" font-family="Times New Roman,Times New Roman_MSFontService,sans-serif" font-style="normal" font-variant="normal" font-weight="400" font-stretch="normal" font-size="55" text-anchor="start" direction="ltr" writing-mode="lr-tb" unicode-bidi="normal" text-decoration="none" transform="matrix(1 0 0 1 3445.65 815)">fwd</text><path d="M3445.94 834.5 3445.94 978.36 3439.06 978.36 3439.06 834.5ZM3456.25 973.777 3442.5 1001.28 3428.75 973.777Z" fill="#AEAEAE" fill-rule="nonzero" fill-opacity="1"/><path d="M3.42552e-06-3.4375 339.238-3.43716 339.238 3.43784-3.42552e-06 3.4375ZM334.654-13.7497 362.154 0.000360892 334.654 13.7503Z" fill="#AEAEAE" fill-rule="nonzero" fill-opacity="1" transform="matrix(1 0 0 -1 3483.5 1057.5)"/><text fill="#AEAEAE" fill-opacity="1" font-family="Times New Roman,Times New Roman_MSFontService,sans-serif" font-style="normal" font-variant="normal" font-weight="400" font-stretch="normal" font-size="83" text-anchor="start" direction="ltr" writing-mode="lr-tb" unicode-bidi="normal" text-decoration="none" transform="matrix(1 0 0 1 3576.19 1031)">SOut</text><path d="M921.5 794.062 1121.33 794.063 1121.33 800.938 921.5 800.938ZM1116.75 783.75 1144.25 797.5 1116.75 811.25Z" fill="#AEAEAE" fill-rule="nonzero" fill-opacity="1"/><path d="M237.5 782.062 437.334 782.063 437.334 788.938 237.5 788.937ZM432.75 771.75 460.25 785.5 432.75 799.25Z" fill="#AEAEAE" fill-rule="nonzero" fill-opacity="1"/><text fill="#AEAEAE" fill-opacity="1" font-family="Times New Roman,Times New Roman_MSFontService,sans-serif" font-style="normal" font-variant="normal" font-weight="400" font-stretch="normal" font-size="83" text-anchor="start" direction="ltr" writing-mode="lr-tb" unicode-bidi="normal" text-decoration="none" transform="matrix(1 0 0 1 291.314 743)">PC</text><rect x="1144.5" y="971.5" width="461" height="129" stroke="#000000" stroke-width="6.875" stroke-linecap="butt" stroke-linejoin="miter" stroke-miterlimit="8" stroke-opacity="1" fill="#D1D1D1" fill-opacity="1"/><text fill="#000000" fill-opacity="1" font-family="Times New Roman,Times New Roman_MSFontService,sans-serif" font-style="normal" font-variant="normal" font-weight="400" font-stretch="normal" font-size="83" text-anchor="start" direction="ltr" writing-mode="lr-tb" unicode-bidi="normal" text-decoration="none" transform="matrix(1 0 0 1 1250.91 1066)">rs</text><text fill="#000000" fill-opacity="1" font-family="Times New Roman,Times New Roman_MSFontService,sans-serif" font-style="normal" font-variant="normal" font-weight="400" font-stretch="normal" font-size="55" text-anchor="start" direction="ltr" writing-mode="lr-tb" unicode-bidi="normal" text-decoration="none" transform="matrix(1 0 0 1 1310.49 1086)">n</text><text fill="#000000" fill-opacity="1" font-family="Times New Roman,Times New Roman_MSFontService,sans-serif" font-style="normal" font-variant="normal" font-weight="400" font-stretch="normal" font-size="83" text-anchor="start" direction="ltr" writing-mode="lr-tb" unicode-bidi="normal" text-decoration="none" transform="matrix(1 0 0 1 1337.99 1066)">local</text><rect x="1062.5" y="220.5" width="1872" height="1842" stroke="#042433" stroke-width="6.875" stroke-linecap="butt" stroke-linejoin="miter" stroke-miterlimit="8" stroke-opacity="1" fill="none"/><text fill="#000000" fill-opacity="1" font-family="Times New Roman,Times New Roman_MSFontService,sans-serif" font-style="normal" font-variant="normal" font-weight="400" font-stretch="normal" font-size="165" text-anchor="start" direction="ltr" writing-mode="lr-tb" unicode-bidi="normal" text-decoration="none" transform="matrix(1 0 0 1 1094.73 396)">Decode</text></g></g></svg>