<svg width="3845" height="2525" xmlns="http://www.w3.org/2000/svg" xmlns:xlink="http://www.w3.org/1999/xlink" xml:space="preserve" overflow="hidden"><g transform="translate(-96 0)"><g><rect x="1144.5" y="843.5" width="461" height="129" stroke="#AEAEAE" stroke-width="6.875" stroke-linecap="butt" stroke-linejoin="miter" stroke-miterlimit="8" stroke-opacity="1" fill="none"/><text fill="#AEAEAE" fill-opacity="1" font-family="Times New Roman,Times New Roman_MSFontService,sans-serif" font-style="normal" font-variant="normal" font-weight="400" font-stretch="normal" font-size="83" text-anchor="start" direction="ltr" writing-mode="lr-tb" unicode-bidi="normal" text-decoration="none" transform="matrix(1 0 0 1 1330.78 938)">rs</text><text fill="#AEAEAE" fill-opacity="1" font-family="Times New Roman,Times New Roman_MSFontService,sans-serif" font-style="normal" font-variant="normal" font-weight="400" font-stretch="normal" font-size="55" text-anchor="start" direction="ltr" writing-mode="lr-tb" unicode-bidi="normal" text-decoration="none" transform="matrix(1 0 0 1 1390.37 958)">n</text><rect x="1144.5" y="587.5" width="461" height="129" stroke="#AEAEAE" stroke-width="6.875" stroke-linecap="butt" stroke-linejoin="miter" stroke-miterlimit="8" stroke-opacity="1" fill="none"/><text fill="#AEAEAE" fill-opacity="1" font-family="Times New Roman,Times New Roman_MSFontService,sans-serif" font-style="normal" font-variant="normal" font-weight="400" font-stretch="normal" font-size="83" text-anchor="start" direction="ltr" writing-mode="lr-tb" unicode-bidi="normal" text-decoration="none" transform="matrix(1 0 0 1 1330.78 682)">rs</text><text fill="#AEAEAE" fill-opacity="1" font-family="Times New Roman,Times New Roman_MSFontService,sans-serif" font-style="normal" font-variant="normal" font-weight="400" font-stretch="normal" font-size="55" text-anchor="start" direction="ltr" writing-mode="lr-tb" unicode-bidi="normal" text-decoration="none" transform="matrix(1 0 0 1 1390.37 702)">1</text><rect x="460.5" y="492.5" width="461" height="1195" stroke="#AEAEAE" stroke-width="6.875" stroke-linecap="butt" stroke-linejoin="miter" stroke-miterlimit="8" stroke-opacity="1" fill="none"/><text fill="#AEAEAE" fill-opacity="1" font-family="Times New Roman,Times New Roman_MSFontService,sans-serif" font-style="normal" font-variant="normal" font-weight="400" font-stretch="normal" font-size="83" text-anchor="start" direction="ltr" writing-mode="lr-tb" unicode-bidi="normal" text-decoration="none" transform="matrix(1 0 0 1 511.664 1070)">Instruction</text><text fill="#AEAEAE" fill-opacity="1" font-family="Times New Roman,Times New Roman_MSFontService,sans-serif" font-style="normal" font-variant="normal" font-weight="400" font-stretch="normal" font-size="83" text-anchor="start" direction="ltr" writing-mode="lr-tb" unicode-bidi="normal" text-decoration="none" transform="matrix(1 0 0 1 548.331 1169)">Memory</text><rect x="1981.5" y="494.5" width="186" height="1195" stroke="#000000" stroke-width="6.875" stroke-linecap="butt" stroke-linejoin="miter" stroke-miterlimit="8" stroke-opacity="1" fill="#D1D1D1" fill-opacity="1"/><text fill="#000000" fill-opacity="1" font-family="Times New Roman,Times New Roman_MSFontService,sans-serif" font-style="normal" font-variant="normal" font-weight="400" font-stretch="normal" font-size="83" text-anchor="start" direction="ltr" writing-mode="lr-tb" unicode-bidi="normal" text-decoration="none" transform="matrix(1 0 0 1 2049.68 1020)">L</text><text fill="#000000" fill-opacity="1" font-family="Times New Roman,Times New Roman_MSFontService,sans-serif" font-style="normal" font-variant="normal" font-weight="400" font-stretch="normal" font-size="83" text-anchor="start" direction="ltr" writing-mode="lr-tb" unicode-bidi="normal" text-decoration="none" transform="matrix(1 0 0 1 2044.68 1127)">D</text><text fill="#000000" fill-opacity="1" font-family="Times New Roman,Times New Roman_MSFontService,sans-serif" font-style="normal" font-variant="normal" font-weight="400" font-stretch="normal" font-size="83" text-anchor="start" direction="ltr" writing-mode="lr-tb" unicode-bidi="normal" text-decoration="none" transform="matrix(1 0 0 1 2037.68 1233)">M</text><rect x="2543.5" y="492.5" width="185" height="1195" stroke="#000000" stroke-width="6.875" stroke-linecap="butt" stroke-linejoin="miter" stroke-miterlimit="8" stroke-opacity="1" fill="#D1D1D1" fill-opacity="1"/><text fill="#000000" fill-opacity="1" font-family="Times New Roman,Times New Roman_MSFontService,sans-serif" font-style="normal" font-variant="normal" font-weight="400" font-stretch="normal" font-size="83" text-anchor="start" direction="ltr" writing-mode="lr-tb" unicode-bidi="normal" text-decoration="none" transform="matrix(1 0 0 1 2613.34 1017)">S</text><text fill="#000000" fill-opacity="1" font-family="Times New Roman,Times New Roman_MSFontService,sans-serif" font-style="normal" font-variant="normal" font-weight="400" font-stretch="normal" font-size="83" text-anchor="start" direction="ltr" writing-mode="lr-tb" unicode-bidi="normal" text-decoration="none" transform="matrix(1 0 0 1 2606.34 1124)">D</text><text fill="#000000" fill-opacity="1" font-family="Times New Roman,Times New Roman_MSFontService,sans-serif" font-style="normal" font-variant="normal" font-weight="400" font-stretch="normal" font-size="83" text-anchor="start" direction="ltr" writing-mode="lr-tb" unicode-bidi="normal" text-decoration="none" transform="matrix(1 0 0 1 2599.34 1230)">M</text><path d="M2358.5 1893.5 2317.79 1975.5 2246.21 1975.5 2205.5 1893.5Z" stroke="#000000" stroke-width="6.875" stroke-linecap="butt" stroke-linejoin="miter" stroke-miterlimit="8" stroke-opacity="1" fill="#D1D1D1" fill-rule="evenodd" fill-opacity="1"/><rect x="1144.5" y="458.5" width="461" height="129" stroke="#000000" stroke-width="6.875" stroke-linecap="butt" stroke-linejoin="miter" stroke-miterlimit="8" stroke-opacity="1" fill="none"/><text fill="#000000" fill-opacity="1" font-family="Times New Roman,Times New Roman_MSFontService,sans-serif" font-style="normal" font-variant="normal" font-weight="400" font-stretch="normal" font-size="83" text-anchor="start" direction="ltr" writing-mode="lr-tb" unicode-bidi="normal" text-decoration="none" transform="matrix(1 0 0 1 1257.45 553)">SRAM</text><rect x="1144.5" y="716.5" width="461" height="128" stroke="#000000" stroke-width="6.875" stroke-linecap="butt" stroke-linejoin="miter" stroke-miterlimit="8" stroke-opacity="1" fill="none"/><text fill="#000000" fill-opacity="1" font-family="Times New Roman,Times New Roman_MSFontService,sans-serif" font-style="normal" font-variant="normal" font-weight="400" font-stretch="normal" font-size="83" text-anchor="start" direction="ltr" writing-mode="lr-tb" unicode-bidi="normal" text-decoration="none" transform="matrix(1 0 0 1 1250.58 810)">rs</text><text fill="#000000" fill-opacity="1" font-family="Times New Roman,Times New Roman_MSFontService,sans-serif" font-style="normal" font-variant="normal" font-weight="400" font-stretch="normal" font-size="55" text-anchor="start" direction="ltr" writing-mode="lr-tb" unicode-bidi="normal" text-decoration="none" transform="matrix(1 0 0 1 1310.16 830)">1</text><text fill="#000000" fill-opacity="1" font-family="Times New Roman,Times New Roman_MSFontService,sans-serif" font-style="normal" font-variant="normal" font-weight="400" font-stretch="normal" font-size="83" text-anchor="start" direction="ltr" writing-mode="lr-tb" unicode-bidi="normal" text-decoration="none" transform="matrix(1 0 0 1 1337.66 810)">local</text><rect x="1144.5" y="971.5" width="461" height="129" stroke="#000000" stroke-width="6.875" stroke-linecap="butt" stroke-linejoin="miter" stroke-miterlimit="8" stroke-opacity="1" fill="none"/><text fill="#000000" fill-opacity="1" font-family="Times New Roman,Times New Roman_MSFontService,sans-serif" font-style="normal" font-variant="normal" font-weight="400" font-stretch="normal" font-size="83" text-anchor="start" direction="ltr" writing-mode="lr-tb" unicode-bidi="normal" text-decoration="none" transform="matrix(1 0 0 1 1250.58 1066)">rs</text><text fill="#000000" fill-opacity="1" font-family="Times New Roman,Times New Roman_MSFontService,sans-serif" font-style="normal" font-variant="normal" font-weight="400" font-stretch="normal" font-size="55" text-anchor="start" direction="ltr" writing-mode="lr-tb" unicode-bidi="normal" text-decoration="none" transform="matrix(1 0 0 1 1310.16 1086)">n</text><text fill="#000000" fill-opacity="1" font-family="Times New Roman,Times New Roman_MSFontService,sans-serif" font-style="normal" font-variant="normal" font-weight="400" font-stretch="normal" font-size="83" text-anchor="start" direction="ltr" writing-mode="lr-tb" unicode-bidi="normal" text-decoration="none" transform="matrix(1 0 0 1 1337.66 1066)">local</text><rect x="1144.5" y="1101.5" width="461" height="129" stroke="#000000" stroke-width="6.875" stroke-linecap="butt" stroke-linejoin="miter" stroke-miterlimit="8" stroke-opacity="1" fill="none"/><text fill="#000000" fill-opacity="1" font-family="Times New Roman,Times New Roman_MSFontService,sans-serif" font-style="normal" font-variant="normal" font-weight="400" font-stretch="normal" font-size="83" text-anchor="start" direction="ltr" writing-mode="lr-tb" unicode-bidi="normal" text-decoration="none" transform="matrix(1 0 0 1 1278.87 1196)">SW</text><text fill="#000000" fill-opacity="1" font-family="Times New Roman,Times New Roman_MSFontService,sans-serif" font-style="normal" font-variant="normal" font-weight="400" font-stretch="normal" font-size="55" text-anchor="start" direction="ltr" writing-mode="lr-tb" unicode-bidi="normal" text-decoration="none" transform="matrix(1 0 0 1 1399.32 1216)">idx</text><rect x="1144.5" y="1228.5" width="461" height="129" stroke="#000000" stroke-width="6.875" stroke-linecap="butt" stroke-linejoin="miter" stroke-miterlimit="8" stroke-opacity="1" fill="none"/><text fill="#000000" fill-opacity="1" font-family="Times New Roman,Times New Roman_MSFontService,sans-serif" font-style="normal" font-variant="normal" font-weight="400" font-stretch="normal" font-size="83" text-anchor="start" direction="ltr" writing-mode="lr-tb" unicode-bidi="normal" text-decoration="none" transform="matrix(1 0 0 1 1258.6 1323)">SW</text><text fill="#000000" fill-opacity="1" font-family="Times New Roman,Times New Roman_MSFontService,sans-serif" font-style="normal" font-variant="normal" font-weight="400" font-stretch="normal" font-size="55" text-anchor="start" direction="ltr" writing-mode="lr-tb" unicode-bidi="normal" text-decoration="none" transform="matrix(1 0 0 1 1382.35 1343)">local</text><rect x="1144.5" y="1357.5" width="461" height="129" stroke="#000000" stroke-width="6.875" stroke-linecap="butt" stroke-linejoin="miter" stroke-miterlimit="8" stroke-opacity="1" fill="none"/><text fill="#000000" fill-opacity="1" font-family="Times New Roman,Times New Roman_MSFontService,sans-serif" font-style="normal" font-variant="normal" font-weight="400" font-stretch="normal" font-size="83" text-anchor="start" direction="ltr" writing-mode="lr-tb" unicode-bidi="normal" text-decoration="none" transform="matrix(1 0 0 1 1269.77 1452)">SW</text><text fill="#000000" fill-opacity="1" font-family="Times New Roman,Times New Roman_MSFontService,sans-serif" font-style="normal" font-variant="normal" font-weight="400" font-stretch="normal" font-size="55" text-anchor="start" direction="ltr" writing-mode="lr-tb" unicode-bidi="normal" text-decoration="none" transform="matrix(1 0 0 1 1393.52 1472)">fwd</text><rect x="1144.5" y="1615.5" width="461" height="129" stroke="#000000" stroke-width="6.875" stroke-linecap="butt" stroke-linejoin="miter" stroke-miterlimit="8" stroke-opacity="1" fill="none"/><text fill="#000000" fill-opacity="1" font-family="Times New Roman,Times New Roman_MSFontService,sans-serif" font-style="normal" font-variant="normal" font-weight="400" font-stretch="normal" font-size="83" text-anchor="start" direction="ltr" writing-mode="lr-tb" unicode-bidi="normal" text-decoration="none" transform="matrix(1 0 0 1 1245.99 1710)">Opcode</text><path d="M3.29574e-06-3.4375 353.499-3.43716 353.499 3.43784-3.29574e-06 3.4375ZM348.915-13.7497 376.415 0.000360892 348.915 13.7503Z" fill="#AEAEAE" fill-rule="nonzero" fill-opacity="1" transform="matrix(1 0 0 -1 1605.5 651.5)"/><path d="M1976.5 648.062 2515.24 648.063 2515.24 654.938 1976.5 654.937ZM2510.65 637.75 2538.15 651.5 2510.65 665.25Z" fill="#AEAEAE" fill-rule="nonzero" fill-opacity="1"/><path d="M0 3.4375-0.181344 3.4375 3.25616 0 3.25616 76.5243-0.181344 73.0868 1046.89 73.0868 1046.89 79.9618-3.61884 79.9618-3.61884-3.4375 0-3.4375ZM1042.31 62.7743 1069.81 76.5243 1042.31 90.2743Z" fill="#AEAEAE" fill-rule="nonzero" fill-opacity="1" transform="matrix(1.83697e-16 1 1 -1.83697e-16 2166.5 822.5)"/><path d="M2830.18 797.5 2830.18 1735.94 2329.5 1735.94 2332.94 1732.5 2332.94 1869.81C2332.94 1871.71 2331.4 1873.24 2329.5 1873.24 2327.6 1873.24 2326.06 1871.71 2326.06 1869.81L2326.06 1729.07 2826.75 1729.07 2823.31 1732.5 2823.31 797.5C2823.31 795.602 2824.85 794.062 2826.75 794.062 2828.64 794.062 2830.18 795.602 2830.18 797.5ZM2343.25 1865.22 2329.5 1892.72 2315.75 1865.22Z" fill="#AEAEAE" fill-rule="nonzero" fill-opacity="1"/><path d="M2728.5 797.5 2826.16 797.5" stroke="#AEAEAE" stroke-width="6.875" stroke-linecap="butt" stroke-linejoin="miter" stroke-miterlimit="8" stroke-opacity="1" fill="none" fill-rule="evenodd"/><path d="M1605.5 777.063 1918.96 777.063 1918.96 1934.77 1915.52 1931.34 2202.62 1931.34 2202.62 1938.21 1912.08 1938.21 1912.08 780.5 1915.52 783.938 1605.5 783.938ZM2198.04 1921.02 2225.54 1934.77 2198.04 1948.52Z" fill="#000000" fill-rule="nonzero" fill-opacity="1"/><text fill="#000000" fill-opacity="1" font-family="Aptos,Aptos_MSFontService,sans-serif" font-style="normal" font-variant="normal" font-weight="400" font-stretch="normal" font-size="83" text-anchor="start" direction="ltr" writing-mode="lr-tb" unicode-bidi="normal" text-decoration="none" transform="matrix(1 0 0 1 2405.12 1905)">…</text><path d="M1605.5 1549.5 1872.11 1549.5 1872.11 2078.05" stroke="#000000" stroke-width="6.875" stroke-linecap="butt" stroke-linejoin="miter" stroke-miterlimit="8" stroke-opacity="1" fill="none" fill-rule="evenodd"/><path d="M1872.5 2075.06 2081.91 2075.06 2081.91 2081.94 1872.5 2081.94ZM2077.33 2064.75 2104.83 2078.5 2077.32 2092.25Z" fill="#000000" fill-rule="nonzero" fill-opacity="1"/><rect x="2104.5" y="2018.5" width="657" height="128" stroke="#000000" stroke-width="6.875" stroke-linecap="butt" stroke-linejoin="miter" stroke-miterlimit="8" stroke-opacity="1" fill="#D1D1D1" fill-opacity="1"/><text fill="#000000" fill-opacity="1" font-family="Times New Roman,Times New Roman_MSFontService,sans-serif" font-style="normal" font-variant="normal" font-weight="400" font-stretch="normal" font-size="83" text-anchor="start" direction="ltr" writing-mode="lr-tb" unicode-bidi="normal" text-decoration="none" transform="matrix(1 0 0 1 2352.41 2113)">LUT</text><path d="M2608.5 2279.5 2567.79 2361.5 2298.21 2361.5 2257.5 2279.5Z" stroke="#000000" stroke-width="6.875" stroke-linecap="butt" stroke-linejoin="miter" stroke-miterlimit="8" stroke-opacity="1" fill="#D1D1D1" fill-rule="evenodd" fill-opacity="1"/><path d="M3.4375-2.91717e-05 3.43767 19.6098-3.43733 19.6098-3.4375 2.91717e-05ZM13.7501 15.0264 0.000360892 42.5265-13.7499 15.0266Z" fill="#000000" fill-rule="nonzero" fill-opacity="1" transform="matrix(-1 0 0 1 2281.5 1975.5)"/><path d="M2546.94 2146.5 2546.94 2256.5 2540.06 2256.5 2540.06 2146.5ZM2557.25 2251.91 2543.5 2279.41 2529.75 2251.91Z" fill="#000000" fill-rule="nonzero" fill-opacity="1"/><path d="M2436.94 2173.5 2436.94 2257.31 2430.06 2257.31 2430.06 2173.5ZM2447.25 2252.72 2433.5 2280.22 2419.75 2252.72Z" fill="#000000" fill-rule="nonzero" fill-opacity="1"/><path d="M2332.94 2226.5 2332.94 2256.95 2326.06 2256.95 2326.06 2226.5ZM2343.25 2252.36 2329.5 2279.86 2315.75 2252.36Z" fill="#000000" fill-rule="nonzero" fill-opacity="1"/><path d="M0 0 1260.55 0.000360892" stroke="#000000" stroke-width="6.875" stroke-linecap="round" stroke-linejoin="miter" stroke-miterlimit="8" stroke-opacity="1" fill="none" fill-rule="evenodd" transform="matrix(-1 0 0 1 2433.05 2173.5)"/><path d="M0 0 1152.84 0.000360892" stroke="#000000" stroke-width="6.875" stroke-linecap="round" stroke-linejoin="miter" stroke-miterlimit="8" stroke-opacity="1" fill="none" fill-rule="evenodd" transform="matrix(-1 0 0 1 2329.34 2226.5)"/><text fill="#000000" fill-opacity="1" font-family="Times New Roman,Times New Roman_MSFontService,sans-serif" font-style="normal" font-variant="normal" font-weight="400" font-stretch="normal" font-size="83" text-anchor="start" direction="ltr" writing-mode="lr-tb" unicode-bidi="normal" text-decoration="none" transform="matrix(1 0 0 1 1193.97 2152)">SRAM out</text><text fill="#000000" fill-opacity="1" font-family="Times New Roman,Times New Roman_MSFontService,sans-serif" font-style="normal" font-variant="normal" font-weight="400" font-stretch="normal" font-size="83" text-anchor="start" direction="ltr" writing-mode="lr-tb" unicode-bidi="normal" text-decoration="none" transform="matrix(1 0 0 1 1200.09 2305)">IO Input</text><path d="M1605.5 1677.06 1822.47 1677.06 1822.47 2321.15 1819.03 2317.72 2254.88 2317.72 2254.88 2324.59 1815.59 2324.59 1815.59 1680.5 1819.03 1683.94 1605.5 1683.94ZM2250.29 2307.4 2277.79 2321.15 2250.29 2334.9Z" fill="#000000" fill-rule="nonzero" fill-opacity="1"/><rect x="1144.5" y="1485.5" width="461" height="129" stroke="#000000" stroke-width="6.875" stroke-linecap="butt" stroke-linejoin="miter" stroke-miterlimit="8" stroke-opacity="1" fill="none"/><text fill="#000000" fill-opacity="1" font-family="Times New Roman,Times New Roman_MSFontService,sans-serif" font-style="normal" font-variant="normal" font-weight="400" font-stretch="normal" font-size="83" text-anchor="start" direction="ltr" writing-mode="lr-tb" unicode-bidi="normal" text-decoration="none" transform="matrix(1 0 0 1 1294.12 1580)">LUT</text><path d="M2686.5 1891.5 2646.29 1972.5 2573.71 1972.5 2533.5 1891.5Z" stroke="#000000" stroke-width="6.875" stroke-linecap="butt" stroke-linejoin="miter" stroke-miterlimit="8" stroke-opacity="1" fill="#D1D1D1" fill-rule="evenodd" fill-opacity="1"/><path d="M3.4375-2.73338e-05 3.43768 22.4691-3.43732 22.4692-3.4375 2.73338e-05ZM13.7501 17.8857 0.000360892 45.3858-13.7499 17.8859Z" fill="#000000" fill-rule="nonzero" fill-opacity="1" transform="matrix(-1 0 0 1 2610.5 1972.5)"/><path d="M2.18595e-05-3.4375 33.8351-3.43728 33.8351 3.43772-2.18595e-05 3.4375ZM29.2519-13.7498 56.7518 0.000360892 29.2517 13.7502Z" fill="#000000" fill-rule="nonzero" fill-opacity="1" transform="matrix(1 0 0 -1 2497.5 1931.5)"/><path d="M2579.94 1831.5 2579.94 1871.37 2573.06 1871.37 2573.06 1831.5ZM2590.25 1866.79 2576.5 1894.29 2562.75 1866.79Z" fill="#000000" fill-rule="nonzero" fill-opacity="1"/><path d="M2646.94 1830.5 2646.94 1870.37 2640.06 1870.37 2640.06 1830.5ZM2657.25 1865.79 2643.5 1893.29 2629.75 1865.79Z" fill="#000000" fill-rule="nonzero" fill-opacity="1"/><path d="M0 0-82.5005 0-82.5005 680.515 1068.11 680.515" stroke="#000000" stroke-width="6.875" stroke-linecap="butt" stroke-linejoin="miter" stroke-miterlimit="8" stroke-opacity="1" fill="none" fill-rule="evenodd" transform="matrix(-6.12323e-17 -1 -1 6.12323e-17 2433.02 2361.61)"/><path d="M1751.5 1290.06 1962.18 1290.06 1962.18 1296.94 1751.5 1296.94ZM1957.59 1279.75 1985.09 1293.5 1957.59 1307.25Z" fill="#000000" fill-rule="nonzero" fill-opacity="1"/><path d="M2509.5 294.5 2468.79 376.5 2397.21 376.5 2356.5 294.5Z" stroke="#000000" stroke-width="6.875" stroke-linecap="butt" stroke-linejoin="miter" stroke-miterlimit="8" stroke-opacity="1" fill="#D1D1D1" fill-rule="evenodd" fill-opacity="1"/><path d="M3400.5 981.5 3482.5 1022.21 3482.5 1093.79 3400.5 1134.5Z" stroke="#000000" stroke-width="6.875" stroke-linecap="butt" stroke-linejoin="miter" stroke-miterlimit="8" stroke-opacity="1" fill="#D1D1D1" fill-rule="evenodd" fill-opacity="1"/><path d="M2433.5 2441.5 3063.08 2441.5" stroke="#000000" stroke-width="6.875" stroke-linecap="butt" stroke-linejoin="miter" stroke-miterlimit="8" stroke-opacity="1" fill="none" fill-rule="evenodd"/><path d="M3059.06 2441.34 3059.06 1103.84 3377.89 1103.71 3377.89 1110.58 3062.5 1110.71 3065.94 1107.27 3065.94 2441.34ZM3372.92 1093.53 3400.8 1106.5 3373.69 1121.02Z" fill="#000000" fill-rule="nonzero" fill-opacity="1"/><path d="M0-3.4375 919.967-3.4375 919.941 86.2655 913.066 86.2634 913.091-0.00103184 916.529 3.4375 0 3.4375ZM930.279 81.7589 916.374 109.181 902.779 81.6035Z" fill="#000000" fill-rule="nonzero" fill-opacity="1" transform="matrix(1.83697e-16 1 1 -1.83697e-16 2433.5 376.5)"/><path d="M2441.5 447.063 3066.93 447.063 3066.93 1002.69 3063.49 999.249 3094.11 999.249 3094.11 1006.12 3060.05 1006.12 3060.05 450.5 3063.49 453.938 2441.5 453.938ZM3089.52 988.937 3117.02 1002.69 3089.52 1016.44Z" fill="#000000" fill-rule="nonzero" fill-opacity="1"/><rect x="3117.5" y="925.5" width="100" height="156" stroke="#000000" stroke-width="6.875" stroke-linecap="butt" stroke-linejoin="miter" stroke-miterlimit="8" stroke-opacity="1" fill="#D1D1D1" fill-opacity="1"/><path d="M3117.5 1081.5 3166 1013.5 3214.5 1081.5Z" stroke="#042433" stroke-width="6.875" stroke-linecap="round" stroke-linejoin="miter" stroke-miterlimit="8" stroke-opacity="1" fill="#D1D1D1" fill-rule="evenodd" fill-opacity="1"/><path d="M6.77715e-06-3.4375 160.135-3.43718 160.135 3.43782-6.77715e-06 3.4375ZM155.551-13.7497 183.051 0.000360892 155.551 13.7503Z" fill="#000000" fill-rule="nonzero" fill-opacity="1" transform="matrix(1 0 0 -1 3217.5 1003.5)"/><path d="M1815.5 332.062 2354.24 332.063 2354.24 338.938 1815.5 338.938ZM2349.65 321.75 2377.15 335.5 2349.65 349.25Z" fill="#000000" fill-rule="nonzero" fill-opacity="1"/><text fill="#000000" fill-opacity="1" font-family="Times New Roman,Times New Roman_MSFontService,sans-serif" font-style="normal" font-variant="normal" font-weight="400" font-stretch="normal" font-size="83" text-anchor="start" direction="ltr" writing-mode="lr-tb" unicode-bidi="normal" text-decoration="none" transform="matrix(1 0 0 1 1802.31 413)">SW</text><text fill="#000000" fill-opacity="1" font-family="Times New Roman,Times New Roman_MSFontService,sans-serif" font-style="normal" font-variant="normal" font-weight="400" font-stretch="normal" font-size="55" text-anchor="start" direction="ltr" writing-mode="lr-tb" unicode-bidi="normal" text-decoration="none" transform="matrix(1 0 0 1 1926.06 433)">local</text><path d="M1802.5 192.5 2376.51 192.5" stroke="#000000" stroke-width="6.875" stroke-linecap="butt" stroke-linejoin="miter" stroke-miterlimit="8" stroke-opacity="1" fill="none" fill-rule="evenodd"/><path d="M1802.5 70.5 2465.78 70.5003" stroke="#000000" stroke-width="6.875" stroke-linecap="butt" stroke-linejoin="miter" stroke-miterlimit="8" stroke-opacity="1" fill="none" fill-rule="evenodd"/><text fill="#000000" fill-opacity="1" font-family="Times New Roman,Times New Roman_MSFontService,sans-serif" font-style="normal" font-variant="normal" font-weight="400" font-stretch="normal" font-size="83" text-anchor="start" direction="ltr" writing-mode="lr-tb" unicode-bidi="normal" text-decoration="none" transform="matrix(1 0 0 1 1808.11 277)">SIn</text><text fill="#000000" fill-opacity="1" font-family="Times New Roman,Times New Roman_MSFontService,sans-serif" font-style="normal" font-variant="normal" font-weight="400" font-stretch="normal" font-size="55" text-anchor="start" direction="ltr" writing-mode="lr-tb" unicode-bidi="normal" text-decoration="none" transform="matrix(1 0 0 1 1922.69 297)">local</text><text fill="#000000" fill-opacity="1" font-family="Times New Roman,Times New Roman_MSFontService,sans-serif" font-style="normal" font-variant="normal" font-weight="400" font-stretch="normal" font-size="83" text-anchor="start" direction="ltr" writing-mode="lr-tb" unicode-bidi="normal" text-decoration="none" transform="matrix(1 0 0 1 1806.94 143)">SIn</text><text fill="#000000" fill-opacity="1" font-family="Times New Roman,Times New Roman_MSFontService,sans-serif" font-style="normal" font-variant="normal" font-weight="400" font-stretch="normal" font-size="55" text-anchor="start" direction="ltr" writing-mode="lr-tb" unicode-bidi="normal" text-decoration="none" transform="matrix(1 0 0 1 1921.52 163)">global</text><path d="M2379.94 192.5 2379.94 272.542 2373.06 272.542 2373.06 192.5ZM2390.25 267.959 2376.5 295.459 2362.75 267.959Z" fill="#000000" fill-rule="nonzero" fill-opacity="1"/><path d="M2469.94 70.5 2469.94 272.328 2463.06 272.328 2463.06 70.5ZM2480.25 267.745 2466.5 295.245 2452.75 267.745Z" fill="#000000" fill-rule="nonzero" fill-opacity="1"/><text fill="#000000" fill-opacity="1" font-family="Times New Roman,Times New Roman_MSFontService,sans-serif" font-style="normal" font-variant="normal" font-weight="400" font-stretch="normal" font-size="83" text-anchor="start" direction="ltr" writing-mode="lr-tb" unicode-bidi="normal" text-decoration="none" transform="matrix(1 0 0 1 3321.02 795)">SW</text><text fill="#000000" fill-opacity="1" font-family="Times New Roman,Times New Roman_MSFontService,sans-serif" font-style="normal" font-variant="normal" font-weight="400" font-stretch="normal" font-size="55" text-anchor="start" direction="ltr" writing-mode="lr-tb" unicode-bidi="normal" text-decoration="none" transform="matrix(1 0 0 1 3444.77 815)">fwd</text><path d="M3444.94 834.5 3444.94 978.36 3438.06 978.36 3438.06 834.5ZM3455.25 973.777 3441.5 1001.28 3427.75 973.777Z" fill="#000000" fill-rule="nonzero" fill-opacity="1"/><path d="M3.42651e-06-3.4375 339.133-3.43716 339.133 3.43784-3.42651e-06 3.4375ZM334.549-13.7497 362.049 0.000360892 334.549 13.7503Z" fill="#000000" fill-rule="nonzero" fill-opacity="1" transform="matrix(1 0 0 -1 3482.5 1057.5)"/><text fill="#000000" fill-opacity="1" font-family="Times New Roman,Times New Roman_MSFontService,sans-serif" font-style="normal" font-variant="normal" font-weight="400" font-stretch="normal" font-size="83" text-anchor="start" direction="ltr" writing-mode="lr-tb" unicode-bidi="normal" text-decoration="none" transform="matrix(1 0 0 1 3575.23 1031)">SOut</text><path d="M921.5 794.062 1121.27 794.063 1121.27 800.938 921.5 800.938ZM1116.69 783.75 1144.19 797.5 1116.69 811.25Z" fill="#AEAEAE" fill-rule="nonzero" fill-opacity="1"/><path d="M237.5 782.062 437.269 782.063 437.269 788.938 237.5 788.937ZM432.686 771.75 460.186 785.5 432.686 799.25Z" fill="#AEAEAE" fill-rule="nonzero" fill-opacity="1"/><text fill="#AEAEAE" fill-opacity="1" font-family="Times New Roman,Times New Roman_MSFontService,sans-serif" font-style="normal" font-variant="normal" font-weight="400" font-stretch="normal" font-size="83" text-anchor="start" direction="ltr" writing-mode="lr-tb" unicode-bidi="normal" text-decoration="none" transform="matrix(1 0 0 1 291.308 743)">PC</text><rect x="1029.5" y="42.5001" width="2855" height="2426" stroke="#042433" stroke-width="6.875" stroke-linecap="butt" stroke-linejoin="miter" stroke-miterlimit="8" stroke-opacity="1" fill="none"/><text fill="#000000" fill-opacity="1" font-family="Times New Roman,Times New Roman_MSFontService,sans-serif" font-style="normal" font-variant="normal" font-weight="400" font-stretch="normal" font-size="165" text-anchor="start" direction="ltr" writing-mode="lr-tb" unicode-bidi="normal" text-decoration="none" transform="matrix(1 0 0 1 1062.23 218)">Execute</text></g></g></svg>