<svg width="2328" height="1435" xmlns="http://www.w3.org/2000/svg" xmlns:xlink="http://www.w3.org/1999/xlink" xml:space="preserve" overflow="hidden"><g transform="translate(-797 -288)"><g><rect x="803.5" y="298.5" width="579" height="1417" stroke="#042433" stroke-width="6.875" stroke-linecap="butt" stroke-linejoin="miter" stroke-miterlimit="8" stroke-opacity="1" fill="#C1E5F5" fill-opacity="1"/><path d="M803.5 298.5 803.5 1715.35" stroke="#000000" stroke-width="6.875" stroke-linecap="butt" stroke-linejoin="miter" stroke-miterlimit="8" stroke-dasharray="6.875 6.875" stroke-opacity="1" fill="none" fill-rule="evenodd"/><path d="M1382.5 298.5 1382.5 1715.35" stroke="#000000" stroke-width="6.875" stroke-linecap="butt" stroke-linejoin="miter" stroke-miterlimit="8" stroke-dasharray="6.875 6.875" stroke-opacity="1" fill="none" fill-rule="evenodd"/><path d="M1961.5 298.5 1961.5 1715.35" stroke="#000000" stroke-width="6.875" stroke-linecap="butt" stroke-linejoin="miter" stroke-miterlimit="8" stroke-dasharray="6.875 6.875" stroke-opacity="1" fill="none" fill-rule="evenodd"/><path d="M2540.5 298.5 2540.5 1715.35" stroke="#000000" stroke-width="6.875" stroke-linecap="butt" stroke-linejoin="miter" stroke-miterlimit="8" stroke-dasharray="6.875 6.875" stroke-opacity="1" fill="none" fill-rule="evenodd"/><path d="M3118.5 298.5 3118.5 1715.35" stroke="#000000" stroke-width="6.875" stroke-linecap="butt" stroke-linejoin="miter" stroke-miterlimit="8" stroke-dasharray="6.875 6.875" stroke-opacity="1" fill="none" fill-rule="evenodd"/><text fill="#000000" fill-opacity="1" font-family="Aptos,Aptos_MSFontService,sans-serif" font-style="normal" font-variant="normal" font-weight="400" font-stretch="normal" font-size="83" text-anchor="start" direction="ltr" writing-mode="lr-tb" unicode-bidi="normal" text-decoration="none" transform="matrix(1 0 0 1 967.892 390)">Level 0</text><text fill="#000000" fill-opacity="1" font-family="Aptos,Aptos_MSFontService,sans-serif" font-style="normal" font-variant="normal" font-weight="400" font-stretch="normal" font-size="83" text-anchor="start" direction="ltr" writing-mode="lr-tb" unicode-bidi="normal" text-decoration="none" transform="matrix(1 0 0 1 1546.59 390)">Level 1</text><text fill="#000000" fill-opacity="1" font-family="Aptos,Aptos_MSFontService,sans-serif" font-style="normal" font-variant="normal" font-weight="400" font-stretch="normal" font-size="83" text-anchor="start" direction="ltr" writing-mode="lr-tb" unicode-bidi="normal" text-decoration="none" transform="matrix(1 0 0 1 2125.28 390)">Level 2</text><text fill="#000000" fill-opacity="1" font-family="Aptos,Aptos_MSFontService,sans-serif" font-style="normal" font-variant="normal" font-weight="400" font-stretch="normal" font-size="83" text-anchor="start" direction="ltr" writing-mode="lr-tb" unicode-bidi="normal" text-decoration="none" transform="matrix(1 0 0 1 2703.98 390)">Level 3</text><path d="M1556.5 741C1556.5 677.211 1608.21 625.5 1672 625.5 1735.79 625.5 1787.5 677.211 1787.5 741 1787.5 804.789 1735.79 856.5 1672 856.5 1608.21 856.5 1556.5 804.789 1556.5 741Z" stroke="#042433" stroke-width="6.875" stroke-linecap="butt" stroke-linejoin="miter" stroke-miterlimit="8" stroke-opacity="1" fill="#00B0F0" fill-rule="evenodd" fill-opacity="1"/><text fill="#000000" fill-opacity="1" font-family="Aptos,Aptos_MSFontService,sans-serif" font-style="normal" font-variant="normal" font-weight="400" font-stretch="normal" font-size="83" text-anchor="start" direction="ltr" writing-mode="lr-tb" unicode-bidi="normal" text-decoration="none" transform="matrix(1 0 0 1 1630.84 767)">v7</text><path d="M981.5 758C981.5 694.211 1033.21 642.5 1097 642.5 1160.79 642.5 1212.5 694.211 1212.5 758 1212.5 821.789 1160.79 873.5 1097 873.5 1033.21 873.5 981.5 821.789 981.5 758Z" stroke="#042433" stroke-width="6.875" stroke-linecap="butt" stroke-linejoin="miter" stroke-miterlimit="8" stroke-opacity="1" fill="#4EA72E" fill-rule="evenodd" fill-opacity="1"/><text fill="#000000" fill-opacity="1" font-family="Aptos,Aptos_MSFontService,sans-serif" font-style="normal" font-variant="normal" font-weight="400" font-stretch="normal" font-size="83" text-anchor="start" direction="ltr" writing-mode="lr-tb" unicode-bidi="normal" text-decoration="none" transform="matrix(1 0 0 1 1055.76 784)">v1</text><path d="M974.5 1075C974.5 1011.21 1026.21 959.5 1090 959.5 1153.79 959.5 1205.5 1011.21 1205.5 1075 1205.5 1138.79 1153.79 1190.5 1090 1190.5 1026.21 1190.5 974.5 1138.79 974.5 1075Z" stroke="#042433" stroke-width="6.875" stroke-linecap="butt" stroke-linejoin="miter" stroke-miterlimit="8" stroke-opacity="1" fill="#FFFFFF" fill-rule="evenodd" fill-opacity="1"/><text fill="#000000" fill-opacity="1" font-family="Aptos,Aptos_MSFontService,sans-serif" font-style="normal" font-variant="normal" font-weight="400" font-stretch="normal" font-size="83" text-anchor="start" direction="ltr" writing-mode="lr-tb" unicode-bidi="normal" text-decoration="none" transform="matrix(1 0 0 1 1048.54 1101)">v2</text><path d="M981.5 1392C981.5 1328.21 1033.21 1276.5 1097 1276.5 1160.79 1276.5 1212.5 1328.21 1212.5 1392 1212.5 1455.79 1160.79 1507.5 1097 1507.5 1033.21 1507.5 981.5 1455.79 981.5 1392Z" stroke="#042433" stroke-width="6.875" stroke-linecap="butt" stroke-linejoin="miter" stroke-miterlimit="8" stroke-opacity="1" fill="#FFFFFF" fill-rule="evenodd" fill-opacity="1"/><text fill="#000000" fill-opacity="1" font-family="Aptos,Aptos_MSFontService,sans-serif" font-style="normal" font-variant="normal" font-weight="400" font-stretch="normal" font-size="83" text-anchor="start" direction="ltr" writing-mode="lr-tb" unicode-bidi="normal" text-decoration="none" transform="matrix(1 0 0 1 1055.76 1418)">v3</text><path d="M1560.5 1096C1560.5 1032.21 1612.21 980.5 1676 980.5 1739.79 980.5 1791.5 1032.21 1791.5 1096 1791.5 1159.79 1739.79 1211.5 1676 1211.5 1612.21 1211.5 1560.5 1159.79 1560.5 1096Z" stroke="#042433" stroke-width="6.875" stroke-linecap="butt" stroke-linejoin="miter" stroke-miterlimit="8" stroke-opacity="1" fill="none" fill-rule="evenodd"/><text fill="#000000" fill-opacity="1" font-family="Aptos,Aptos_MSFontService,sans-serif" font-style="normal" font-variant="normal" font-weight="400" font-stretch="normal" font-size="83" text-anchor="start" direction="ltr" writing-mode="lr-tb" unicode-bidi="normal" text-decoration="none" transform="matrix(1 0 0 1 1634.46 1122)">v4</text><path d="M1556.5 1459C1556.5 1395.21 1608.21 1343.5 1672 1343.5 1735.79 1343.5 1787.5 1395.21 1787.5 1459 1787.5 1522.79 1735.79 1574.5 1672 1574.5 1608.21 1574.5 1556.5 1522.79 1556.5 1459Z" stroke="#042433" stroke-width="6.875" stroke-linecap="butt" stroke-linejoin="miter" stroke-miterlimit="8" stroke-opacity="1" fill="none" fill-rule="evenodd"/><text fill="#000000" fill-opacity="1" font-family="Aptos,Aptos_MSFontService,sans-serif" font-style="normal" font-variant="normal" font-weight="400" font-stretch="normal" font-size="83" text-anchor="start" direction="ltr" writing-mode="lr-tb" unicode-bidi="normal" text-decoration="none" transform="matrix(1 0 0 1 1630.84 1485)">v5</text><path d="M2131.5 1459C2131.5 1395.21 2183.21 1343.5 2247 1343.5 2310.79 1343.5 2362.5 1395.21 2362.5 1459 2362.5 1522.79 2310.79 1574.5 2247 1574.5 2183.21 1574.5 2131.5 1522.79 2131.5 1459Z" stroke="#042433" stroke-width="6.875" stroke-linecap="butt" stroke-linejoin="miter" stroke-miterlimit="8" stroke-opacity="1" fill="none" fill-rule="evenodd"/><text fill="#000000" fill-opacity="1" font-family="Aptos,Aptos_MSFontService,sans-serif" font-style="normal" font-variant="normal" font-weight="400" font-stretch="normal" font-size="83" text-anchor="start" direction="ltr" writing-mode="lr-tb" unicode-bidi="normal" text-decoration="none" transform="matrix(1 0 0 1 2205.93 1485)">v9</text><path d="M2133.5 1096C2133.5 1032.21 2185.21 980.5 2249 980.5 2312.79 980.5 2364.5 1032.21 2364.5 1096 2364.5 1159.79 2312.79 1211.5 2249 1211.5 2185.21 1211.5 2133.5 1159.79 2133.5 1096Z" stroke="#042433" stroke-width="6.875" stroke-linecap="butt" stroke-linejoin="miter" stroke-miterlimit="8" stroke-opacity="1" fill="none" fill-rule="evenodd"/><text fill="#000000" fill-opacity="1" font-family="Aptos,Aptos_MSFontService,sans-serif" font-style="normal" font-variant="normal" font-weight="400" font-stretch="normal" font-size="83" text-anchor="start" direction="ltr" writing-mode="lr-tb" unicode-bidi="normal" text-decoration="none" transform="matrix(1 0 0 1 2207.83 1122)">v6</text><path d="M2719.5 1096C2719.5 1032.21 2771.21 980.5 2835 980.5 2898.79 980.5 2950.5 1032.21 2950.5 1096 2950.5 1159.79 2898.79 1211.5 2835 1211.5 2771.21 1211.5 2719.5 1159.79 2719.5 1096Z" stroke="#042433" stroke-width="6.875" stroke-linecap="butt" stroke-linejoin="miter" stroke-miterlimit="8" stroke-opacity="1" fill="none" fill-rule="evenodd"/><text fill="#000000" fill-opacity="1" font-family="Aptos,Aptos_MSFontService,sans-serif" font-style="normal" font-variant="normal" font-weight="400" font-stretch="normal" font-size="83" text-anchor="start" direction="ltr" writing-mode="lr-tb" unicode-bidi="normal" text-decoration="none" transform="matrix(1 0 0 1 2793.64 1122)">v8</text><path d="M0.166837-3.43345 321.491 12.1802 321.157 19.0471-0.166837 3.43345ZM317.413 1.65743 344.213 16.7259 316.078 29.125Z" fill="#000000" fill-rule="nonzero" fill-opacity="1" transform="matrix(1 0 0 -1 1212.5 758.226)"/><path d="M1788.72 738.288 2699.24 1085.22 2696.79 1091.65 1786.28 744.712ZM2698.63 1073.95 2719.43 1096.59 2688.84 1099.65Z" fill="#000000" fill-rule="nonzero" fill-opacity="1"/><path d="M1214.9 756.036 1546.3 1078.43 1541.5 1083.35 1210.1 760.964ZM1550.2 1067.84 1560.33 1096.87 1531.03 1087.55Z" fill="#000000" fill-rule="nonzero" fill-opacity="1"/><path d="M1791.5 1093.06 2111.08 1093.06 2111.08 1099.94 1791.5 1099.94ZM2106.5 1082.75 2134 1096.5 2106.5 1110.25Z" fill="#000000" fill-rule="nonzero" fill-opacity="1"/><path d="M3.49506e-06-3.4375 332.032-3.43716 332.032 3.43784-3.49506e-06 3.4375ZM327.449-13.7497 354.948 0.000360892 327.448 13.7503Z" fill="#000000" fill-rule="nonzero" fill-opacity="1" transform="matrix(1 0 0 -1 2364.5 1096.5)"/><path d="M1205.71 1071.07 1537.89 1091.25 1537.47 1098.12 1205.29 1077.93ZM1533.94 1080.68 1560.55 1096.07 1532.27 1108.13Z" fill="#000000" fill-rule="nonzero" fill-opacity="1"/><path d="M1213.16 1388.13 1534.89 1451.22 1533.56 1457.96 1211.84 1394.87ZM1532.37 1440.21 1556.71 1459 1527.08 1467.2Z" fill="#000000" fill-rule="nonzero" fill-opacity="1"/><path d="M1.24681-3.20342 911.822 351.204 909.328 357.611-1.24681 3.20342ZM911.291 339.931 931.931 362.719 901.316 365.558Z" fill="#000000" fill-rule="nonzero" fill-opacity="1" transform="matrix(1 0 0 -1 1787.5 1459.22)"/><path d="M1787.5 1456.06 2108.8 1456.06 2108.8 1462.94 1787.5 1462.94ZM2104.21 1445.75 2131.71 1459.5 2104.21 1473.25Z" fill="#000000" fill-rule="nonzero" fill-opacity="1"/><path d="M2.22439-2.62078 332.58 277.769 328.131 283.01-2.22439 2.62078ZM335.759 266.941 347.828 295.219 317.964 287.907Z" fill="#000000" fill-rule="nonzero" fill-opacity="1" transform="matrix(1 0 0 -1 1212.5 1391.72)"/></g></g></svg>